<svg xmlns="http://www.w3.org/2000/svg" data-name="Livello 1" viewBox="0 0 8000 7000" id="working-setup"><polygon fill="#7489c4" points="6563.093 3903.544 6746.872 3903.544 7442.362 3500 7037.936 3275.365 6563.093 3903.544"></polygon><polygon fill="#7489c4" points="3002.955 4416.649 3425.706 4416.649 5168.803 3389.118 3696.816 2522.984 3354.099 2522.984 3002.955 4416.649"></polygon><polygon fill="#4864a8" points="1715.176 2125.502 1654.118 2085.459 1654.118 3573.462 1715.176 3609.939 1715.176 2125.502"></polygon><polygon fill="#5c7bbf" points="1715.176 2125.502 3523.141 1072.443 3463.337 1036.649 1654.118 2085.459 1715.176 2125.502"></polygon><polygon fill="#2f407c" points="3523.141 1072.443 3523.141 2569.565 1715.176 3609.939 1715.176 2125.502 3523.141 1072.443"></polygon><polygon fill="#2f407c" points="1715.176 3609.939 1715.176 3665.976 3002.955 4416.649 3002.955 4358.499 1715.176 3609.939"></polygon><polygon fill="#e5e5e5" points="3002.955 4358.499 4814.092 3311.782 3523.141 2569.565 1715.176 3609.939 3002.955 4358.499"></polygon><polygon fill="#223256" points="4814.092 3311.782 4814.092 3363.59 3002.955 4416.649 3002.955 4358.499 4814.092 3311.782"></polygon><polygon fill="#28396b" points="3285.497 3817.673 3552.263 3970.57 4082.534 3664.769 3815.771 3510.243 3285.497 3817.673"></polygon><polygon fill="#2f407c" points="2514.77 3617.688 2417.43 3560.184 2320.089 3614.694 2320.733 3615.075 2196.363 3685.646 2294.603 3743.751 2418.101 3672.666 2418.327 3672.8 2514.77 3617.688"></polygon><polygon fill="#2f407c" points="2443.162 3544.373 2541.399 3602.479 2637.841 3547.37 2540.502 3489.865 2443.162 3544.373"></polygon><polygon fill="#2f407c" points="2566.888 3473.422 2665.126 3531.524 2761.565 3476.417 2664.226 3418.912 2566.888 3473.422"></polygon><polygon fill="#2f407c" points="2691.009 3401.963 2789.249 3460.069 2885.688 3404.961 2788.349 3347.455 2691.009 3401.963"></polygon><polygon fill="#2f407c" points="2814.733 3331.014 2912.973 3389.118 3009.412 3334.008 2912.074 3276.504 2814.733 3331.014"></polygon><polygon fill="#2f407c" points="2937.806 3260.693 3036.046 3318.795 3132.485 3263.688 3035.146 3206.181 2937.806 3260.693"></polygon><polygon fill="#2f407c" points="3061.532 3189.741 3159.77 3247.845 3256.209 3192.735 3158.87 3135.231 3061.532 3189.741"></polygon><polygon fill="#2f407c" points="3183.183 3118.66 3281.419 3176.765 3377.86 3121.657 3280.521 3064.15 3183.183 3118.66"></polygon><polygon fill="#2f407c" points="3306.907 3047.71 3405.145 3105.816 3501.584 3050.706 3404.247 2993.2 3306.907 3047.71"></polygon><polygon fill="#2f407c" points="3429.98 2977.389 3528.218 3035.493 3624.656 2980.386 3527.318 2922.879 3429.98 2977.389"></polygon><polygon fill="#2f407c" points="3553.704 2906.436 3651.942 2964.54 3748.383 2909.433 3651.042 2851.928 3553.704 2906.436"></polygon><polygon fill="#2f407c" points="2335.155 3765.738 2433.393 3823.842 2529.834 3768.732 2432.496 3711.226 2335.155 3765.738"></polygon><polygon fill="#2f407c" points="2458.879 3694.785 2557.12 3752.889 2653.559 3697.779 2556.22 3640.275 2458.879 3694.785"></polygon><polygon fill="#2f407c" points="2581.954 3624.464 2680.192 3682.568 2776.633 3627.458 2679.293 3569.956 2581.954 3624.464"></polygon><polygon fill="#2f407c" points="2705.676 3553.514 2803.914 3611.615 2900.357 3556.508 2803.017 3499.001 2705.676 3553.514"></polygon><polygon fill="#2f407c" points="2829.799 3482.056 2928.037 3540.158 3024.478 3485.052 2927.14 3427.546 2829.799 3482.056"></polygon><polygon fill="#2f407c" points="2953.523 3411.103 3051.764 3469.207 3148.203 3414.097 3050.864 3356.593 2953.523 3411.103"></polygon><polygon fill="#2f407c" points="3076.598 3340.782 3174.834 3398.886 3271.275 3343.779 3173.937 3286.272 3076.598 3340.782"></polygon><polygon fill="#2f407c" points="3200.32 3269.829 3298.558 3327.934 3394.999 3272.826 3297.661 3215.319 3200.32 3269.829"></polygon><polygon fill="#2f407c" points="3321.971 3198.754 3420.209 3256.856 3516.652 3201.748 3419.314 3144.242 3321.971 3198.754"></polygon><polygon fill="#2f407c" points="3445.695 3127.801 3543.933 3185.905 3675.92 3110.631 3577.587 3052.54 3445.695 3127.801"></polygon><polygon fill="#2f407c" points="3568.77 3057.478 3667.006 3115.582 3763.449 3060.475 3666.108 3002.968 3568.77 3057.478"></polygon><polygon fill="#2f407c" points="3692.494 2986.527 3790.732 3044.629 3887.171 2989.524 3789.833 2932.017 3692.494 2986.527"></polygon><polygon fill="#2f407c" points="2473.868 3847.015 2572.106 3905.121 2668.547 3850.012 2571.209 3792.505 2473.868 3847.015"></polygon><polygon fill="#2f407c" points="2597.592 3776.065 2695.83 3834.169 2829.799 3756.636 2732.461 3699.132 2597.592 3776.065"></polygon><polygon fill="#2f407c" points="2720.665 3705.744 2818.903 3763.848 2915.346 3708.738 2818.006 3651.234 2720.665 3705.744"></polygon><polygon fill="#2f407c" points="2844.389 3634.791 2942.627 3692.895 3039.07 3637.785 2941.727 3580.281 2844.389 3634.791"></polygon><polygon fill="#2f407c" points="2968.512 3563.336 3066.75 3621.438 3163.191 3566.33 3065.851 3508.825 2968.512 3563.336"></polygon><polygon fill="#2f407c" points="3092.236 3492.383 3190.474 3550.487 3286.915 3495.377 3189.575 3437.87 3092.236 3492.383"></polygon><polygon fill="#2f407c" points="3215.309 3422.06 3313.547 3480.166 3409.988 3425.054 3312.647 3367.552 3215.309 3422.06"></polygon><polygon fill="#2f407c" points="3339.035 3351.109 3437.273 3409.213 3533.712 3354.106 3436.372 3296.599 3339.035 3351.109"></polygon><polygon fill="#2f407c" points="3460.682 3280.031 3558.92 3338.135 3655.365 3283.025 3558.022 3225.521 3460.682 3280.031"></polygon><polygon fill="#2f407c" points="3584.408 3209.078 3682.646 3267.182 3779.087 3212.075 3681.749 3154.568 3584.408 3209.078"></polygon><polygon fill="#2f407c" points="3707.483 3138.758 3805.721 3196.862 3902.16 3141.754 3804.821 3084.25 3707.483 3138.758"></polygon><polygon fill="#2f407c" points="3831.207 3067.807 3929.445 3125.909 4025.884 3070.801 3928.545 3013.297 3831.207 3067.807"></polygon><polygon fill="#2f407c" points="2612.659 3927.106 2710.895 3985.21 2807.338 3930.101 2709.997 3872.594 2612.659 3927.106"></polygon><polygon fill="#2f407c" points="2736.383 3856.153 2834.621 3914.257 2931.062 3859.148 2833.721 3801.643 2736.383 3856.153"></polygon><polygon fill="#2f407c" points="2859.458 3785.833 2957.693 3843.935 3054.135 3788.829 2956.796 3731.323 2859.458 3785.833"></polygon><polygon fill="#2f407c" points="2983.182 3714.88 3081.417 3772.986 3591.061 3480.733 3492.914 3422.748 2983.182 3714.88"></polygon><polygon fill="#2f407c" points="3107.303 3643.424 3205.541 3701.529 3301.982 3646.419 3204.643 3588.912 3107.303 3643.424"></polygon><polygon fill="#2f407c" points="3231.027 3572.472 3329.265 3630.576 3425.706 3575.466 3328.367 3517.962 3231.027 3572.472"></polygon><polygon fill="#2f407c" points="3354.099 3502.151 3452.337 3560.255 3548.779 3505.145 3451.44 3447.641 3354.099 3502.151"></polygon><polygon fill="#2f407c" points="3477.824 3431.2 3576.062 3489.304 3672.503 3434.194 3575.162 3376.69 3477.824 3431.2"></polygon><polygon fill="#2f407c" points="3599.477 3360.122 3697.712 3418.224 3794.156 3363.117 3696.815 3305.61 3599.477 3360.122"></polygon><polygon fill="#2f407c" points="3723.199 3289.169 3821.437 3347.273 3917.88 3292.162 3820.539 3234.659 3723.199 3289.169"></polygon><polygon fill="#2f407c" points="3846.271 3218.847 3944.509 3276.953 4040.952 3221.843 3943.612 3164.339 3846.271 3218.847"></polygon><polygon fill="#2f407c" points="3969.995 3147.896 4068.236 3206.002 4164.677 3150.89 4067.336 3093.386 3969.995 3147.896"></polygon><polygon fill="#87a3cc" points="3210.403 2288.084 2027.914 2969.622 2027.914 3033.497 3210.403 2353.836 3210.403 2288.084"></polygon><polygon fill="#ccc" points="3173.086 1648.885 2664.344 1942.104 2664.344 1969.585 3173.086 1677.173 3173.086 1648.885"></polygon><polygon fill="#ccc" points="3173.086 1698.267 2664.344 1991.484 2664.344 2018.967 3173.086 1726.553 3173.086 1698.267"></polygon><polygon fill="#ccc" points="3173.086 1746.732 2664.344 2039.951 2664.344 2067.432 3173.086 1775.021 3173.086 1746.732"></polygon><polygon fill="#ccc" points="3173.086 1797.486 2664.344 2090.705 2664.344 2118.184 3173.086 1825.774 3173.086 1797.486"></polygon><polygon fill="#ccc" points="3173.086 1849.21 2664.344 2142.431 2664.344 2169.912 3173.086 1877.499 3173.086 1849.21"></polygon><polygon fill="#5d7da3" points="3171.617 2310.439 3171.617 1987.934 3119.138 2020.855 3119.138 2340.686 3171.617 2310.439"></polygon><polygon fill="#5d7da3" points="3078.342 2366.221 3078.342 2216.548 3025.863 2249.471 3025.863 2396.47 3078.342 2366.221"></polygon><polygon fill="#5d7da3" points="2983.31 2419.263 2983.31 2169.912 2930.832 2202.833 2930.832 2449.508 2983.31 2419.263"></polygon><polygon fill="#5d7da3" points="2888.205 2475.348 2888.205 2372.009 2835.727 2404.93 2835.727 2505.597 2888.205 2475.348"></polygon><polygon fill="#5d7da3" points="2794.32 2529.226 2794.32 2331.772 2741.842 2364.69 2741.842 2559.47 2794.32 2529.226"></polygon><polygon fill="#5d7da3" points="2696.692 2585.313 2696.692 2525.6 2644.213 2558.52 2644.213 2615.56 2696.692 2585.313"></polygon><polygon fill="#5d7da3" points="2600.672 2642.925 2600.672 2344.576 2548.193 2377.497 2548.193 2673.169 2600.672 2642.925"></polygon><polygon fill="#5d7da3" points="2501.91 2697.79 2501.91 2548.119 2449.431 2581.037 2449.431 2728.039 2501.91 2697.79"></polygon><polygon fill="#5d7da3" points="2402.233 2757.229 2402.233 2525.6 2349.753 2558.52 2349.753 2787.478 2402.233 2757.229"></polygon><polygon fill="#5d7da3" points="2306.215 2810.464 2306.215 2734.291 2253.736 2767.214 2253.736 2840.713 2306.215 2810.464"></polygon><polygon fill="#5d7da3" points="2208.366 2866.248 2208.366 2716.575 2155.886 2749.496 2155.886 2896.495 2208.366 2866.248"></polygon><polygon fill="#5d7da3" points="2112.348 2921.116 2112.348 2578.679 2059.868 2611.599 2059.868 2951.362 2112.348 2921.116"></polygon><polygon fill="#cecece" points="2574.432 1987.934 2574.432 2216.546 2406.467 2313.088 2406.467 2084.742 2574.432 1987.934"></polygon><polygon fill="#cecece" points="2349.753 2118.184 2349.753 2346.8 2181.787 2443.344 2181.787 2214.996 2349.753 2118.184"></polygon><polygon fill="#fff" points="3404.245 1141.695 2073.471 3403.762 1715.176 3609.939 1715.176 2125.502 3404.245 1141.695" opacity=".13"></polygon><polygon fill="#7489c4" points="1073.367 4328.134 1742.836 4328.134 1451.749 4037.046 1161.552 4037.046 1073.367 4328.134"></polygon><path fill="#e5e5e5" d="M1366.0912,3678.4621H780.64308v478.9098h0c-.1772,43.7526,28.3034,87.6026,85.4702,120.9275,113.9864,66.4459,300.50392,66.4459,414.48992,0,63.1065-36.7866,91.2061-86.392,84.4386-134.5368l1.0494-.0248Z"></path><path fill="#c6c6c6" d="M866.11328,3798.9854c-113.9845-66.4459-113.9845-174.7336,0-240.6407,113.9846-65.9053,300.50542-65.9053,414.48992,0,113.9845,65.9071,113.9845,174.1948,0,240.6407S980.09788,3865.4314,866.11328,3798.9854Z"></path><path fill="#636363" d="M907.92348,3774.7526c-90.989-53.041-90.989-139.4824,0-192.0933,90.989-52.6094,239.88062-52.6094,330.86962,0,90.989,52.6109,90.989,139.0523,0,192.0933S998.91247,3827.7935,907.92348,3774.7526Z"></path><path fill="#629b3e" d="M1059.201,3015.8439s-50.8029-105.1095-134.89052-141.8978c0,0-82.3357,162.9197-33.2847,346.8613l76.2903,28.0292,91.88492-110.365Z"></path><path fill="#74b54b" d="M1323.7265,3050.8804s-12.2627-169.927-61.3138-215.4744c0,0-122.6278,73.5766-133.1387,262.7737l64.8175,194.8711,112.1168-31.9514Z"></path><path fill="#5b893d" d="M1000.7326,3182.0331s-20.36372-329.1089,91.7531-521.8096c0,0,161.1679,509.781,103.3576,718.2481l-68.3211,131.3869-96.9705-127.8832Z"></path><path fill="#649b40" d="M1121.847,3424.4332s98.5219-398.0784,284.2153-562.7499c0,0,70.073,467.7372-102.7737,717.6642,0,0-114.4526,196.7883-230.073,131.9708Z"></path><path fill="#5b893d" d="M924.943,3074.189s-51.43542-226.5203-193.33322-322.8706c0,0-33.2847,571.0948,71.8248,788.3211,0,0,70.073,161.1678,209.05112,174.0146Z"></path><path fill="#74b54b" d="M1038.1791,3749.8584s-129.635-50.8029-126.13142-271.5328c0,0,27.8897-346.8002-.06968-416.9037s0-2.9503,0-2.9503,157.734,179.854,239.4858,453.1387C1151.4638,3511.6103,1211.6098,3807.6686,1038.1791,3749.8584Z"></path><polygon fill="#7489c4" points="4205.94 2569.565 4875.409 2569.565 4584.322 2278.477 4294.125 2278.477 4205.94 2569.565"></polygon><path fill="#e5e5e5" d="M4498.6642,1919.893H3913.2161v478.9098h0c-.1772,43.7525,28.3034,87.6026,85.4702,120.9274,113.9864,66.446,300.5039,66.446,414.4899,0,63.1065-36.7866,91.2061-86.3919,84.4387-134.5367l1.0493-.0248Z"></path><path fill="#c6c6c6" d="M3998.6863,2040.4163c-113.9845-66.446-113.9845-174.7337,0-240.6408,113.9846-65.9053,300.5054-65.9053,414.4899,0,113.9846,65.9071,113.9846,174.1948,0,240.6408S4112.6709,2106.8622,3998.6863,2040.4163Z"></path><path fill="#636363" d="M4040.4965,2016.1834c-90.989-53.0409-90.989-139.4824,0-192.0932,90.989-52.6094,239.8806-52.6094,330.8696,0,90.989,52.6108,90.989,139.0523,0,192.0932S4131.4855,2069.2244,4040.4965,2016.1834Z"></path><path fill="#629b3e" d="M4191.774,1257.2747s-50.8029-105.1094-134.8905-141.8978c0,0-82.3357,162.9197-33.2847,346.8613l76.2903,28.0292,91.8849-110.3649Z"></path><path fill="#74b54b" d="M4456.2995,1292.3112s-12.2627-169.927-61.3138-215.4744c0,0-122.6277,73.5766-133.1387,262.7737l64.8175,194.8711,112.1168-31.9514Z"></path><path fill="#5b893d" d="M4133.3056,1423.4639s-20.3637-329.1088,91.7531-521.8096c0,0,161.1679,509.781,103.3576,718.2482l-68.3211,131.3868-96.9705-127.8832Z"></path><path fill="#649b40" d="M4254.42,1665.864s98.5219-398.0783,284.2153-562.7498c0,0,70.073,467.7372-102.7737,717.6641,0,0-114.4526,196.7884-230.073,131.9708Z"></path><path fill="#5b893d" d="M4057.516,1315.6198s-51.4354-226.5202-193.3332-322.8706c0,0-33.2847,571.0949,71.8248,788.3211,0,0,70.073,161.1679,209.0511,174.0146Z"></path><path fill="#74b54b" d="M4170.7521,1991.2893s-129.635-50.8029-126.1314-271.5328c0,0,27.8897-346.8002-.0697-416.9038s0-2.9502,0-2.9502,157.734,179.854,239.4858,453.1386C4284.0368,1753.0411,4344.1828,2049.0995,4170.7521,1991.2893Z"></path><polygon fill="#7489c4" points="4987.849 2993.246 5700.545 2993.246 5448.356 2741.057 5150.178 2741.057 4987.849 2993.246"></polygon><path fill="#fef8ff" d="M5244.8016,2838.7727V2348.0942H4730.6378V2843.614h.0397c-.8766,34.2093,20.9594,68.489,65.4774,94.1949l30.0889,17.3734c86.9529,50.2084,229.6091,50.8437,317.0079,1.4142l35.7183-20.2018C5225.6688,2909.9832,5247.6392,2874.1886,5244.8016,2838.7727Z"></path><path fill="#efd7b6" d="M4795.1438,2250.7319c-86.4,51.1583-85.9418,134.0946,1.0111,184.303l30.0889,17.3735c86.9529,50.2114,229.6091,50.8437,317.0079,1.4172l35.7183-20.2049c87.3988-49.4295,88.2174-131.7305,1.8174-182.8888l-35.7305-21.1609c-86.4001-51.1583-227.7825-51.1583-314.1795,0Z"></path><path fill="#776d64" d="M4820.077,2262.3906c-75.2179,44.5394-74.8239,116.7456.8797,160.4572l26.1946,15.1285c75.7065,43.7116,199.9018,44.2645,275.9933,1.2309l31.0938-17.5903c76.0915-43.0336,76.8062-114.6869,1.5853-159.2263l-31.1092-18.4212c-75.2209-44.5424-198.3074-44.5424-273.5284,0Z"></path><path fill="#8c7f73" d="M4854.9889,2305.8243c-59.5702,35.2723-59.2556,92.4539.6964,127.0695l20.7455,11.9794c59.9519,34.6156,158.3039,35.0523,218.5613.9743l24.6246-13.9281c60.2574-34.078,60.8225-90.8228,1.2523-126.0951l-24.6338-14.5848c-59.5671-35.2754-157.0424-35.2754-216.6095,0Z"></path><polygon fill="#a8886d" points="5166.957 2532.553 5302.139 2611.085 5302.139 2847.23 5166.957 2768.14 5166.957 2805.721 5324.574 2897.152 5324.574 2580.794 5166.957 2490.488 5166.957 2532.553"></polygon><polygon fill="#dbdbdb" points="5137.601 2548.075 5272.783 2626.601 5272.783 2862.753 5137.601 2783.659 5137.601 2821.24 5295.221 2912.671 5295.221 2596.314 5137.601 2506.004 5137.601 2548.075"></polygon><polygon fill="#bcbcbc" points="5295.221 2912.671 5324.574 2897.152 5324.574 2580.794 5295.221 2596.314 5295.221 2912.671"></polygon><polygon fill="#a3a3a3" points="5137.601 2783.659 5166.957 2768.14 5272.783 2830.055 5272.783 2862.753 5137.601 2783.659"></polygon><polygon fill="#a3a3a3" points="5137.601 2506.004 5166.957 2490.488 5324.574 2580.794 5295.221 2596.314 5137.601 2506.004"></polygon><polygon fill="#7489c4" points="2465.426 5977.535 2755.177 5977.535 3700.543 5423.441 3194.16 5135.28 2465.426 5977.535"></polygon><polygon fill="#e2e2e2" points="969.768 5111.267 2465.426 5977.535 3461.488 5399.745 1962.075 4538.38 969.768 5111.267"></polygon><polygon fill="#c4c4c4" points="1376.45 5117.272 2063.268 4704.803 2046.249 4694.237 1358.626 5106.332 1376.45 5117.272"></polygon><polygon fill="#c4c4c4" points="1442.771 5159.215 2129.592 4746.748 2112.573 4736.18 1424.947 5148.277 1442.771 5159.215"></polygon><polygon fill="#c4c4c4" points="1518.619 5201.16 2205.437 4788.694 2188.418 4778.127 1500.795 5190.223 1518.619 5201.16"></polygon><polygon fill="#c4c4c4" points="1584.94 5243.103 2271.758 4830.637 2254.737 4820.07 1567.116 5232.165 1584.94 5243.103"></polygon><polygon fill="#c4c4c4" points="1665.643 5287.868 2352.461 4875.402 2335.442 4864.833 1647.818 5276.928 1665.643 5287.868"></polygon><polygon fill="#c4c4c4" points="1731.964 5329.811 2418.782 4917.345 2401.766 4906.776 1714.139 5318.871 1731.964 5329.811"></polygon><polygon fill="#c4c4c4" points="1807.812 5371.757 2494.63 4959.293 2477.611 4948.721 1789.987 5360.819 1807.812 5371.757"></polygon><polygon fill="#c4c4c4" points="1874.133 5413.702 2560.951 5001.233 2543.93 4990.667 1856.308 5402.762 1874.133 5413.702"></polygon><polygon fill="#c4c4c4" points="1954.632 5453.532 2641.451 5041.063 2624.432 5030.499 1936.806 5442.592 1954.632 5453.532"></polygon><polygon fill="#c4c4c4" points="2020.954 5495.475 2707.772 5083.008 2690.753 5072.442 2003.127 5484.537 2020.954 5495.475"></polygon><polygon fill="#c4c4c4" points="2096.799 5537.423 2783.617 5124.957 2766.598 5114.388 2078.975 5526.483 2096.799 5537.423"></polygon><polygon fill="#c4c4c4" points="2163.123 5579.366 2849.941 5166.897 2832.922 5156.331 2145.298 5568.426 2163.123 5579.366"></polygon><polygon fill="#c4c4c4" points="2243.825 5624.131 2930.643 5211.664 2913.624 5201.095 2225.998 5613.191 2243.825 5624.131"></polygon><polygon fill="#c4c4c4" points="2310.149 5666.074 2996.965 5253.607 2979.946 5243.038 2292.319 5655.136 2310.149 5666.074"></polygon><polygon fill="#c4c4c4" points="2385.992 5708.022 3072.81 5295.553 3055.791 5284.986 2368.167 5697.082 2385.992 5708.022"></polygon><polygon fill="#c4c4c4" points="2452.315 5749.965 3139.134 5337.498 3122.112 5326.929 2434.488 5739.024 2452.315 5749.965"></polygon><path fill="#5c9133" d="M1368.6227 5253.9425q-.46 0-.92-.039l-87.2822-7.3153a11.02462 11.02462 0 011.8451-21.9719l70.9338 5.9458-28.1724-89.9667a11.02561 11.02561 0 0121.0442-6.5877l33.0736 105.616a11.02889 11.02889 0 01-10.5221 14.3188zM1557.0693 5358.6541c-.3041 0-.6133-.013-.92-.039l-87.2796-7.3153a11.02451 11.02451 0 011.8425-21.9719l70.9365 5.9432-28.175-89.9667a11.02555 11.02555 0 0121.0441-6.5876l33.0736 105.6185a11.02889 11.02889 0 01-10.5221 14.3188zM1726.6832 5457.4875c-.3041 0-.6133-.013-.92-.039l-87.2796-7.3153a11.02462 11.02462 0 011.8451-21.9719l70.9339 5.9458-28.175-89.9693a11.02556 11.02556 0 0121.0441-6.5877l33.0762 105.6186a11.03185 11.03185 0 01-10.5247 14.3188zM1915.1298 5562.1991c-.3015 0-.6107-.013-.9199-.039l-87.2771-7.3153a11.0258 11.0258 0 011.8425-21.9745l70.9339 5.9458-28.175-89.9667a11.02559 11.02559 0 0121.0442-6.5876l33.0761 105.6159a11.03266 11.03266 0 01-10.5247 14.3214zM2091.7212 5666.1207c-.3041 0-.6107-.013-.9226-.0364l-87.277-7.3153a11.02462 11.02462 0 011.8451-21.9719l70.9339 5.9432-28.175-89.9666a11.02595 11.02595 0 0121.0441-6.5903l33.0762 105.6185a11.03185 11.03185 0 01-10.5247 14.3188zM2280.1704 5770.8323c-.3041 0-.6133-.013-.9225-.0363l-87.2797-7.3154a11.02591 11.02591 0 011.8451-21.9745l70.9365 5.9432-28.175-89.964a11.026 11.026 0 0121.0442-6.5903l33.0735 105.6186a11.02874 11.02874 0 01-10.5221 14.3187z"></path><polygon fill="#f7f7f7" points="969.768 5083.402 2465.426 5949.67 3461.488 5371.88 1962.075 4510.515 969.768 5083.402"></polygon><polygon fill="#c4c4c4" points="1376.45 5089.407 2063.268 4676.938 2046.249 4666.372 1358.626 5078.467 1376.45 5089.407"></polygon><polygon fill="#c4c4c4" points="1442.771 5131.35 2129.592 4718.883 2112.573 4708.315 1424.947 5120.412 1442.771 5131.35"></polygon><polygon fill="#c4c4c4" points="1518.619 5173.296 2205.437 4760.829 2188.418 4750.263 1500.795 5162.358 1518.619 5173.296"></polygon><polygon fill="#c4c4c4" points="1584.94 5215.238 2271.758 4802.772 2254.737 4792.205 1567.116 5204.3 1584.94 5215.238"></polygon><polygon fill="#c4c4c4" points="1665.643 5260.003 2352.461 4847.537 2335.442 4836.968 1647.818 5249.063 1665.643 5260.003"></polygon><polygon fill="#c4c4c4" points="1731.964 5301.946 2418.782 4889.48 2401.766 4878.911 1714.139 5291.006 1731.964 5301.946"></polygon><polygon fill="#c4c4c4" points="1807.812 5343.892 2494.63 4931.428 2477.611 4920.856 1789.987 5332.954 1807.812 5343.892"></polygon><polygon fill="#c4c4c4" points="1874.133 5385.837 2560.951 4973.368 2543.93 4962.802 1856.308 5374.897 1874.133 5385.837"></polygon><polygon fill="#c4c4c4" points="1954.632 5425.667 2641.451 5013.198 2624.432 5002.634 1936.806 5414.727 1954.632 5425.667"></polygon><polygon fill="#c4c4c4" points="2020.954 5467.61 2707.772 5055.143 2690.753 5044.577 2003.127 5456.672 2020.954 5467.61"></polygon><polygon fill="#c4c4c4" points="2096.799 5509.558 2783.617 5097.092 2766.598 5086.523 2078.975 5498.618 2096.799 5509.558"></polygon><polygon fill="#c4c4c4" points="2163.123 5551.501 2849.941 5139.032 2832.922 5128.466 2145.298 5540.56 2163.123 5551.501"></polygon><polygon fill="#c4c4c4" points="2243.825 5596.266 2930.643 5183.799 2913.624 5173.23 2225.998 5585.326 2243.825 5596.266"></polygon><polygon fill="#c4c4c4" points="2310.149 5638.209 2996.965 5225.742 2979.946 5215.173 2292.319 5627.271 2310.149 5638.209"></polygon><polygon fill="#c4c4c4" points="2385.992 5680.157 3072.81 5267.688 3055.791 5257.121 2368.167 5669.217 2385.992 5680.157"></polygon><polygon fill="#c4c4c4" points="2452.315 5722.1 3139.134 5309.633 3122.112 5299.064 2434.488 5711.159 2452.315 5722.1"></polygon><path fill="#5c9133" d="M1368.6227 5226.0775q-.46 0-.92-.039l-87.2822-7.3153a11.02467 11.02467 0 011.8451-21.972l70.9338 5.9458-28.1724-89.9666a11.02561 11.02561 0 0121.0442-6.5877l33.0736 105.616a11.029 11.029 0 01-10.5221 14.3188zM1557.0693 5330.7891c-.3041 0-.6133-.013-.92-.039l-87.2796-7.3153a11.02451 11.02451 0 011.8425-21.9719l70.9365 5.9432-28.175-89.9667a11.02556 11.02556 0 0121.0441-6.5877l33.0736 105.6186a11.02889 11.02889 0 01-10.5221 14.3188zM1726.6832 5429.6225c-.3041 0-.6133-.013-.92-.039l-87.2796-7.3153a11.02467 11.02467 0 011.8451-21.972l70.9339 5.9458-28.175-89.9692a11.02556 11.02556 0 0121.0441-6.5877l33.0762 105.6186a11.03194 11.03194 0 01-10.5247 14.3188zM1915.1298 5534.3341c-.3015 0-.6107-.013-.9199-.039l-87.2771-7.3153a11.0258 11.0258 0 011.8425-21.9745l70.9339 5.9458-28.175-89.9667a11.02561 11.02561 0 0121.0442-6.5877l33.0761 105.616a11.03266 11.03266 0 01-10.5247 14.3214zM2091.7212 5638.2557c-.3041 0-.6107-.013-.9226-.0364l-87.277-7.3153a11.02462 11.02462 0 011.8451-21.9719l70.9339 5.9432-28.175-89.9667a11.02593 11.02593 0 0121.0441-6.5902l33.0762 105.6185a11.03185 11.03185 0 01-10.5247 14.3188zM2280.1704 5742.9673c-.3041 0-.6133-.013-.9225-.0364l-87.2797-7.3153a11.02591 11.02591 0 011.8451-21.9745l70.9365 5.9432-28.175-89.964a11.026 11.026 0 0121.0442-6.5903l33.0735 105.6185a11.02878 11.02878 0 01-10.5221 14.3188z"></path><polygon fill="#e2e2e2" points="969.768 5056.423 2465.426 5922.691 3461.488 5344.901 1962.075 4483.537 969.768 5056.423"></polygon><polygon fill="#c4c4c4" points="1376.45 5062.429 2063.268 4649.959 2046.249 4639.393 1358.626 5051.488 1376.45 5062.429"></polygon><polygon fill="#c4c4c4" points="1442.771 5104.371 2129.592 4691.905 2112.573 4681.336 1424.947 5093.433 1442.771 5104.371"></polygon><polygon fill="#c4c4c4" points="1518.619 5146.317 2205.437 4733.85 2188.418 4723.284 1500.795 5135.379 1518.619 5146.317"></polygon><polygon fill="#c4c4c4" points="1584.94 5188.26 2271.758 4775.793 2254.737 4765.227 1567.116 5177.322 1584.94 5188.26"></polygon><polygon fill="#c4c4c4" points="1665.643 5233.025 2352.461 4820.558 2335.442 4809.989 1647.818 5222.084 1665.643 5233.025"></polygon><polygon fill="#c4c4c4" points="1731.964 5274.968 2418.782 4862.501 2401.766 4851.932 1714.139 5264.027 1731.964 5274.968"></polygon><polygon fill="#c4c4c4" points="1807.812 5316.913 2494.63 4904.449 2477.611 4893.877 1789.987 5305.975 1807.812 5316.913"></polygon><polygon fill="#c4c4c4" points="1874.133 5358.859 2560.951 4946.389 2543.93 4935.823 1856.308 5347.918 1874.133 5358.859"></polygon><polygon fill="#c4c4c4" points="1954.632 5398.689 2641.451 4986.219 2624.432 4975.656 1936.806 5387.748 1954.632 5398.689"></polygon><polygon fill="#c4c4c4" points="2020.954 5440.631 2707.772 5028.165 2690.753 5017.599 2003.127 5429.694 2020.954 5440.631"></polygon><polygon fill="#c4c4c4" points="2096.799 5482.58 2783.617 5070.113 2766.598 5059.544 2078.975 5471.639 2096.799 5482.58"></polygon><polygon fill="#c4c4c4" points="2163.123 5524.522 2849.941 5112.053 2832.922 5101.487 2145.298 5513.582 2163.123 5524.522"></polygon><polygon fill="#c4c4c4" points="2243.825 5569.288 2930.643 5156.821 2913.624 5146.252 2225.998 5558.347 2243.825 5569.288"></polygon><polygon fill="#c4c4c4" points="2310.149 5611.23 2996.965 5198.764 2979.946 5188.195 2292.319 5600.292 2310.149 5611.23"></polygon><polygon fill="#c4c4c4" points="2385.992 5653.178 3072.81 5240.709 3055.791 5230.143 2368.167 5642.238 2385.992 5653.178"></polygon><polygon fill="#c4c4c4" points="2452.315 5695.121 3139.134 5282.655 3122.112 5272.086 2434.488 5684.181 2452.315 5695.121"></polygon><path fill="#5c9133" d="M1368.6227 5199.0989q-.46 0-.92-.039l-87.2822-7.3153a11.02467 11.02467 0 011.8451-21.972l70.9338 5.9459-28.1724-89.9667a11.02561 11.02561 0 0121.0442-6.5877l33.0736 105.616a11.029 11.029 0 01-10.5221 14.3188zM1557.0693 5303.8105c-.3041 0-.6133-.013-.92-.039l-87.2796-7.3153a11.02451 11.02451 0 011.8425-21.9719l70.9365 5.9432-28.175-89.9667a11.02556 11.02556 0 0121.0441-6.5877l33.0736 105.6186a11.02889 11.02889 0 01-10.5221 14.3188zM1726.6832 5402.6439c-.3041 0-.6133-.013-.92-.039l-87.2796-7.3153a11.02467 11.02467 0 011.8451-21.972l70.9339 5.9459-28.175-89.9693a11.02556 11.02556 0 0121.0441-6.5877l33.0762 105.6186a11.03194 11.03194 0 01-10.5247 14.3188zM1915.1298 5507.3555c-.3015 0-.6107-.013-.9199-.039l-87.2771-7.3153a11.0258 11.0258 0 011.8425-21.9745l70.9339 5.9458-28.175-89.9667a11.02561 11.02561 0 0121.0442-6.5877l33.0761 105.616a11.03266 11.03266 0 01-10.5247 14.3214zM2091.7212 5611.2771c-.3041 0-.6107-.013-.9226-.0364l-87.277-7.3153a11.02462 11.02462 0 011.8451-21.9719l70.9339 5.9432-28.175-89.9667a11.02593 11.02593 0 0121.0441-6.5902l33.0762 105.6185a11.03185 11.03185 0 01-10.5247 14.3188zM2280.1704 5715.9887c-.3041 0-.6133-.013-.9225-.0364l-87.2797-7.3153a11.02591 11.02591 0 011.8451-21.9745l70.9365 5.9432-28.175-89.964a11.026 11.026 0 0121.0442-6.5903l33.0735 105.6185a11.02878 11.02878 0 01-10.5221 14.3188z"></path><polygon fill="#f7f7f7" points="969.768 5027.628 2465.426 5893.897 3461.488 5316.106 1962.075 4454.742 969.768 5027.628"></polygon><polygon fill="#c4c4c4" points="1376.45 5033.634 2063.268 4621.165 2046.249 4610.599 1358.626 5022.694 1376.45 5033.634"></polygon><polygon fill="#c4c4c4" points="1442.771 5075.577 2129.592 4663.11 2112.573 4652.541 1424.947 5064.639 1442.771 5075.577"></polygon><polygon fill="#c4c4c4" points="1518.619 5117.522 2205.437 4705.056 2188.418 4694.489 1500.795 5106.585 1518.619 5117.522"></polygon><polygon fill="#c4c4c4" points="1584.94 5159.465 2271.758 4746.999 2254.737 4736.432 1567.116 5148.527 1584.94 5159.465"></polygon><polygon fill="#c4c4c4" points="1665.643 5204.23 2352.461 4791.764 2335.442 4781.195 1647.818 5193.29 1665.643 5204.23"></polygon><polygon fill="#c4c4c4" points="1731.964 5246.173 2418.782 4833.706 2401.766 4823.138 1714.139 5235.233 1731.964 5246.173"></polygon><polygon fill="#c4c4c4" points="1807.812 5288.119 2494.63 4875.655 2477.611 4865.083 1789.987 5277.181 1807.812 5288.119"></polygon><polygon fill="#c4c4c4" points="1874.133 5330.064 2560.951 4917.595 2543.93 4907.029 1856.308 5319.124 1874.133 5330.064"></polygon><polygon fill="#c4c4c4" points="1954.632 5369.894 2641.451 4957.425 2624.432 4946.861 1936.806 5358.954 1954.632 5369.894"></polygon><polygon fill="#c4c4c4" points="2020.954 5411.837 2707.772 4999.37 2690.753 4988.804 2003.127 5400.899 2020.954 5411.837"></polygon><polygon fill="#c4c4c4" points="2096.799 5453.785 2783.617 5041.318 2766.598 5030.749 2078.975 5442.845 2096.799 5453.785"></polygon><polygon fill="#c4c4c4" points="2163.123 5495.728 2849.941 5083.259 2832.922 5072.692 2145.298 5484.788 2163.123 5495.728"></polygon><polygon fill="#c4c4c4" points="2243.825 5540.493 2930.643 5128.026 2913.624 5117.457 2225.998 5529.552 2243.825 5540.493"></polygon><polygon fill="#c4c4c4" points="2310.149 5582.436 2996.965 5169.969 2979.946 5159.4 2292.319 5571.498 2310.149 5582.436"></polygon><polygon fill="#c4c4c4" points="2385.992 5624.384 3072.81 5211.915 3055.791 5201.348 2368.167 5613.443 2385.992 5624.384"></polygon><polygon fill="#c4c4c4" points="2452.315 5666.327 3139.134 5253.86 3122.112 5243.291 2434.488 5655.386 2452.315 5666.327"></polygon><path fill="#5c9133" d="M1368.6227 5170.3044q-.46 0-.92-.039l-87.2822-7.3153a11.02462 11.02462 0 011.8451-21.9719l70.9338 5.9458-28.1724-89.9667a11.02561 11.02561 0 0121.0442-6.5877l33.0736 105.616a11.02889 11.02889 0 01-10.5221 14.3188zM1557.0693 5275.016c-.3041 0-.6133-.013-.92-.039l-87.2796-7.3153a11.02451 11.02451 0 011.8425-21.9719l70.9365 5.9432-28.175-89.9667a11.02555 11.02555 0 0121.0441-6.5876l33.0736 105.6185a11.02889 11.02889 0 01-10.5221 14.3188zM1726.6832 5373.8494c-.3041 0-.6133-.013-.92-.039l-87.2796-7.3153a11.02462 11.02462 0 011.8451-21.9719l70.9339 5.9458-28.175-89.9693a11.02556 11.02556 0 0121.0441-6.5877l33.0762 105.6186a11.03185 11.03185 0 01-10.5247 14.3188zM1915.1298 5478.561c-.3015 0-.6107-.013-.9199-.039l-87.2771-7.3153a11.0258 11.0258 0 011.8425-21.9745l70.9339 5.9458-28.175-89.9667a11.02559 11.02559 0 0121.0442-6.5876l33.0761 105.6159a11.03266 11.03266 0 01-10.5247 14.3214zM2091.7212 5582.4826c-.3041 0-.6107-.013-.9226-.0364l-87.277-7.3153a11.02462 11.02462 0 011.8451-21.9719l70.9339 5.9432-28.175-89.9667a11.02593 11.02593 0 0121.0441-6.5902l33.0762 105.6185a11.03185 11.03185 0 01-10.5247 14.3188zM2280.1704 5687.1942c-.3041 0-.6133-.013-.9225-.0364l-87.2797-7.3153a11.02591 11.02591 0 011.8451-21.9745l70.9365 5.9432-28.175-89.964a11.026 11.026 0 0121.0442-6.5903l33.0735 105.6185a11.02878 11.02878 0 01-10.5221 14.3188z"></path><polygon fill="#e2e2e2" points="969.768 5000.373 2465.426 5866.641 3461.488 5288.851 1962.075 4427.487 969.768 5000.373"></polygon><polygon fill="#c4c4c4" points="1376.45 5006.379 2063.268 4593.909 2046.249 4583.343 1358.626 4995.438 1376.45 5006.379"></polygon><polygon fill="#c4c4c4" points="1442.771 5048.322 2129.592 4635.855 2112.573 4625.286 1424.947 5037.384 1442.771 5048.322"></polygon><polygon fill="#c4c4c4" points="1518.619 5090.267 2205.437 4677.8 2188.418 4667.234 1500.795 5079.329 1518.619 5090.267"></polygon><polygon fill="#c4c4c4" points="1584.94 5132.21 2271.758 4719.743 2254.737 4709.177 1567.116 5121.272 1584.94 5132.21"></polygon><polygon fill="#c4c4c4" points="1665.643 5176.975 2352.461 4764.508 2335.442 4753.939 1647.818 5166.034 1665.643 5176.975"></polygon><polygon fill="#c4c4c4" points="1731.964 5218.918 2418.782 4806.451 2401.766 4795.882 1714.139 5207.977 1731.964 5218.918"></polygon><polygon fill="#c4c4c4" points="1807.812 5260.863 2494.63 4848.399 2477.611 4837.828 1789.987 5249.925 1807.812 5260.863"></polygon><polygon fill="#c4c4c4" points="1874.133 5302.809 2560.951 4890.339 2543.93 4879.773 1856.308 5291.868 1874.133 5302.809"></polygon><polygon fill="#c4c4c4" points="1954.632 5342.639 2641.451 4930.169 2624.432 4919.606 1936.806 5331.698 1954.632 5342.639"></polygon><polygon fill="#c4c4c4" points="2020.954 5384.582 2707.772 4972.115 2690.753 4961.549 2003.127 5373.644 2020.954 5384.582"></polygon><polygon fill="#c4c4c4" points="2096.799 5426.53 2783.617 5014.063 2766.598 5003.494 2078.975 5415.589 2096.799 5426.53"></polygon><polygon fill="#c4c4c4" points="2163.123 5468.473 2849.941 5056.003 2832.922 5045.437 2145.298 5457.532 2163.123 5468.473"></polygon><polygon fill="#c4c4c4" points="2243.825 5513.238 2930.643 5100.771 2913.624 5090.202 2225.998 5502.297 2243.825 5513.238"></polygon><polygon fill="#c4c4c4" points="2310.149 5555.181 2996.965 5142.714 2979.946 5132.145 2292.319 5544.243 2310.149 5555.181"></polygon><polygon fill="#c4c4c4" points="2385.992 5597.128 3072.81 5184.659 3055.791 5174.093 2368.167 5586.188 2385.992 5597.128"></polygon><polygon fill="#c4c4c4" points="2452.315 5639.071 3139.134 5226.605 3122.112 5216.036 2434.488 5628.131 2452.315 5639.071"></polygon><path fill="#5c9133" d="M1368.6227 5143.049q-.46 0-.92-.039l-87.2822-7.3153a11.02462 11.02462 0 011.8451-21.9719l70.9338 5.9458-28.1724-89.9666a11.02561 11.02561 0 0121.0442-6.5877l33.0736 105.6159a11.02889 11.02889 0 01-10.5221 14.3188zM1557.0693 5247.7606c-.3041 0-.6133-.0129-.92-.0389l-87.2796-7.3153a11.02456 11.02456 0 011.8425-21.972l70.9365 5.9432-28.175-89.9666a11.02556 11.02556 0 0121.0441-6.5877l33.0736 105.6186a11.02886 11.02886 0 01-10.5221 14.3187zM1726.6832 5346.594c-.3041 0-.6133-.013-.92-.039l-87.2796-7.3153a11.02462 11.02462 0 011.8451-21.9719l70.9339 5.9458-28.175-89.9692a11.02556 11.02556 0 0121.0441-6.5877l33.0762 105.6185a11.03185 11.03185 0 01-10.5247 14.3188zM1915.1298 5451.3056c-.3015 0-.6107-.0129-.9199-.0389l-87.2771-7.3153a11.02585 11.02585 0 011.8425-21.9746l70.9339 5.9458-28.175-89.9666a11.02561 11.02561 0 0121.0442-6.5877l33.0761 105.616a11.03262 11.03262 0 01-10.5247 14.3213zM2091.7212 5555.2273c-.3041 0-.6107-.013-.9226-.0364l-87.277-7.3153a11.02467 11.02467 0 011.8451-21.972l70.9339 5.9432-28.175-89.9666a11.02595 11.02595 0 0121.0441-6.5903l33.0762 105.6186a11.03194 11.03194 0 01-10.5247 14.3188zM2280.1704 5659.9389c-.3041 0-.6133-.013-.9225-.0364l-87.2797-7.3153a11.02591 11.02591 0 011.8451-21.9745l70.9365 5.9432-28.175-89.9641a11.026 11.026 0 0121.0442-6.5903l33.0735 105.6186a11.02878 11.02878 0 01-10.5221 14.3188z"></path><polygon fill="#f7f7f7" points="969.768 4972.508 2465.426 5838.776 3461.488 5260.986 1962.075 4399.622 969.768 4972.508"></polygon><polygon fill="#c4c4c4" points="1376.45 4978.514 2063.268 4566.044 2046.249 4555.478 1358.626 4967.573 1376.45 4978.514"></polygon><polygon fill="#c4c4c4" points="1442.771 5020.457 2129.592 4607.99 2112.573 4597.421 1424.947 5009.519 1442.771 5020.457"></polygon><polygon fill="#c4c4c4" points="1518.619 5062.402 2205.437 4649.935 2188.418 4639.369 1500.795 5051.464 1518.619 5062.402"></polygon><polygon fill="#c4c4c4" points="1584.94 5104.345 2271.758 4691.878 2254.737 4681.312 1567.116 5093.407 1584.94 5104.345"></polygon><polygon fill="#c4c4c4" points="1665.643 5149.11 2352.461 4736.643 2335.442 4726.074 1647.818 5138.169 1665.643 5149.11"></polygon><polygon fill="#c4c4c4" points="1731.964 5191.053 2418.782 4778.586 2401.766 4768.017 1714.139 5180.112 1731.964 5191.053"></polygon><polygon fill="#c4c4c4" points="1807.812 5232.998 2494.63 4820.534 2477.611 4809.963 1789.987 5222.06 1807.812 5232.998"></polygon><polygon fill="#c4c4c4" points="1874.133 5274.944 2560.951 4862.474 2543.93 4851.908 1856.308 5264.003 1874.133 5274.944"></polygon><polygon fill="#c4c4c4" points="1954.632 5314.774 2641.451 4902.305 2624.432 4891.741 1936.806 5303.833 1954.632 5314.774"></polygon><polygon fill="#c4c4c4" points="2020.954 5356.717 2707.772 4944.25 2690.753 4933.684 2003.127 5345.779 2020.954 5356.717"></polygon><polygon fill="#c4c4c4" points="2096.799 5398.665 2783.617 4986.198 2766.598 4975.629 2078.975 5387.724 2096.799 5398.665"></polygon><polygon fill="#c4c4c4" points="2163.123 5440.608 2849.941 5028.138 2832.922 5017.572 2145.298 5429.667 2163.123 5440.608"></polygon><polygon fill="#c4c4c4" points="2243.825 5485.373 2930.643 5072.906 2913.624 5062.337 2225.998 5474.432 2243.825 5485.373"></polygon><polygon fill="#c4c4c4" points="2310.149 5527.316 2996.965 5114.849 2979.946 5104.28 2292.319 5516.378 2310.149 5527.316"></polygon><polygon fill="#c4c4c4" points="2385.992 5569.264 3072.81 5156.794 3055.791 5146.228 2368.167 5558.323 2385.992 5569.264"></polygon><polygon fill="#c4c4c4" points="2452.315 5611.206 3139.134 5198.74 3122.112 5188.171 2434.488 5600.266 2452.315 5611.206"></polygon><path fill="#5c9133" d="M1368.6227 5115.184q-.46 0-.92-.039l-87.2822-7.3153a11.02462 11.02462 0 011.8451-21.9719l70.9338 5.9458-28.1724-89.9667a11.02559 11.02559 0 0121.0442-6.5876l33.0736 105.6159a11.02889 11.02889 0 01-10.5221 14.3188zM1557.0693 5219.8956c-.3041 0-.6133-.013-.92-.039l-87.2796-7.3153a11.02451 11.02451 0 011.8425-21.9719l70.9365 5.9432-28.175-89.9666a11.02556 11.02556 0 0121.0441-6.5877l33.0736 105.6185a11.02889 11.02889 0 01-10.5221 14.3188zM1726.6832 5318.729c-.3041 0-.6133-.013-.92-.039l-87.2796-7.3153a11.02462 11.02462 0 011.8451-21.9719l70.9339 5.9458-28.175-89.9693a11.02555 11.02555 0 0121.0441-6.5876l33.0762 105.6185a11.03185 11.03185 0 01-10.5247 14.3188zM1915.1298 5423.4406c-.3015 0-.6107-.013-.9199-.039l-87.2771-7.3153a11.0258 11.0258 0 011.8425-21.9745l70.9339 5.9458-28.175-89.9666a11.02561 11.02561 0 0121.0442-6.5877l33.0761 105.6159a11.03266 11.03266 0 01-10.5247 14.3214zM2091.7212 5527.3622c-.3041 0-.6107-.013-.9226-.0363l-87.277-7.3154a11.02462 11.02462 0 011.8451-21.9719l70.9339 5.9432-28.175-89.9666a11.02595 11.02595 0 0121.0441-6.5903l33.0762 105.6186a11.03181 11.03181 0 01-10.5247 14.3187zM2280.1704 5632.0739c-.3041 0-.6133-.013-.9225-.0364l-87.2797-7.3153a11.026 11.026 0 011.8451-21.9746l70.9365 5.9432-28.175-89.964a11.026 11.026 0 0121.0442-6.5903l33.0735 105.6186a11.02887 11.02887 0 01-10.5221 14.3188z"></path><polygon fill="#e2e2e2" points="969.768 4945.53 2465.426 5811.798 3461.488 5234.007 1962.075 4372.643 969.768 4945.53"></polygon><polygon fill="#c4c4c4" points="1376.45 4951.535 2063.268 4539.066 2046.249 4528.499 1358.626 4940.595 1376.45 4951.535"></polygon><polygon fill="#c4c4c4" points="1442.771 4993.478 2129.592 4581.011 2112.573 4570.442 1424.947 4982.54 1442.771 4993.478"></polygon><polygon fill="#c4c4c4" points="1518.619 5035.423 2205.437 4622.957 2188.418 4612.39 1500.795 5024.485 1518.619 5035.423"></polygon><polygon fill="#c4c4c4" points="1584.94 5077.366 2271.758 4664.9 2254.737 4654.333 1567.116 5066.428 1584.94 5077.366"></polygon><polygon fill="#c4c4c4" points="1665.643 5122.131 2352.461 4709.665 2335.442 4699.096 1647.818 5111.191 1665.643 5122.131"></polygon><polygon fill="#c4c4c4" points="1731.964 5164.074 2418.782 4751.608 2401.766 4741.039 1714.139 5153.134 1731.964 5164.074"></polygon><polygon fill="#c4c4c4" points="1807.812 5206.02 2494.63 4793.556 2477.611 4782.984 1789.987 5195.082 1807.812 5206.02"></polygon><polygon fill="#c4c4c4" points="1874.133 5247.965 2560.951 4835.496 2543.93 4824.93 1856.308 5237.025 1874.133 5247.965"></polygon><polygon fill="#c4c4c4" points="1954.632 5287.795 2641.451 4875.326 2624.432 4864.762 1936.806 5276.855 1954.632 5287.795"></polygon><polygon fill="#c4c4c4" points="2020.954 5329.738 2707.772 4917.271 2690.753 4906.705 2003.127 5318.8 2020.954 5329.738"></polygon><polygon fill="#c4c4c4" points="2096.799 5371.686 2783.617 4959.219 2766.598 4948.65 2078.975 5360.746 2096.799 5371.686"></polygon><polygon fill="#c4c4c4" points="2163.123 5413.629 2849.941 5001.16 2832.922 4990.593 2145.298 5402.689 2163.123 5413.629"></polygon><polygon fill="#c4c4c4" points="2243.825 5458.394 2930.643 5045.927 2913.624 5035.358 2225.998 5447.453 2243.825 5458.394"></polygon><polygon fill="#c4c4c4" points="2310.149 5500.337 2996.965 5087.87 2979.946 5077.301 2292.319 5489.399 2310.149 5500.337"></polygon><polygon fill="#c4c4c4" points="2385.992 5542.285 3072.81 5129.816 3055.791 5119.249 2368.167 5531.344 2385.992 5542.285"></polygon><polygon fill="#c4c4c4" points="2452.315 5584.228 3139.134 5171.761 3122.112 5161.192 2434.488 5573.287 2452.315 5584.228"></polygon><path fill="#5c9133" d="M1368.6227 5088.2054q-.46 0-.92-.039l-87.2822-7.3153a11.02462 11.02462 0 011.8451-21.9719l70.9338 5.9458-28.1724-89.9667a11.02559 11.02559 0 0121.0442-6.5876l33.0736 105.6159a11.02889 11.02889 0 01-10.5221 14.3188zM1557.0693 5192.917c-.3041 0-.6133-.013-.92-.039l-87.2796-7.3153a11.02451 11.02451 0 011.8425-21.9719l70.9365 5.9432-28.175-89.9666a11.02556 11.02556 0 0121.0441-6.5877l33.0736 105.6185a11.02889 11.02889 0 01-10.5221 14.3188zM1726.6832 5291.7504c-.3041 0-.6133-.013-.92-.039l-87.2796-7.3153a11.02462 11.02462 0 011.8451-21.9719l70.9339 5.9458-28.175-89.9693a11.02555 11.02555 0 0121.0441-6.5876l33.0762 105.6185a11.03185 11.03185 0 01-10.5247 14.3188zM1915.1298 5396.462c-.3015 0-.6107-.013-.9199-.039l-87.2771-7.3153a11.0258 11.0258 0 011.8425-21.9745l70.9339 5.9458-28.175-89.9666a11.02561 11.02561 0 0121.0442-6.5877l33.0761 105.6159a11.03266 11.03266 0 01-10.5247 14.3214zM2091.7212 5500.3836c-.3041 0-.6107-.013-.9226-.0363l-87.277-7.3154a11.02462 11.02462 0 011.8451-21.9719l70.9339 5.9432-28.175-89.9666a11.02595 11.02595 0 0121.0441-6.5903l33.0762 105.6186a11.03181 11.03181 0 01-10.5247 14.3187zM2280.1704 5605.0953c-.3041 0-.6133-.013-.9225-.0364l-87.2797-7.3153a11.026 11.026 0 011.8451-21.9746l70.9365 5.9432-28.175-89.964a11.026 11.026 0 0121.0442-6.5903l33.0735 105.6186a11.02887 11.02887 0 01-10.5221 14.3188z"></path><polygon fill="#f7f7f7" points="969.768 4916.735 2465.426 5783.003 3461.488 5205.213 1962.075 4343.849 969.768 4916.735"></polygon><polygon fill="#c4c4c4" points="1376.45 4922.741 2063.268 4510.271 2046.249 4499.705 1358.626 4911.8 1376.45 4922.741"></polygon><polygon fill="#c4c4c4" points="1442.771 4964.683 2129.592 4552.217 2112.573 4541.648 1424.947 4953.746 1442.771 4964.683"></polygon><polygon fill="#c4c4c4" points="1518.619 5006.629 2205.437 4594.162 2188.418 4583.596 1500.795 4995.691 1518.619 5006.629"></polygon><polygon fill="#c4c4c4" points="1584.94 5048.572 2271.758 4636.105 2254.737 4625.539 1567.116 5037.634 1584.94 5048.572"></polygon><polygon fill="#c4c4c4" points="1665.643 5093.337 2352.461 4680.87 2335.442 4670.301 1647.818 5082.396 1665.643 5093.337"></polygon><polygon fill="#c4c4c4" points="1731.964 5135.28 2418.782 4722.813 2401.766 4712.244 1714.139 5124.339 1731.964 5135.28"></polygon><polygon fill="#c4c4c4" points="1807.812 5177.225 2494.63 4764.761 2477.611 4754.19 1789.987 5166.287 1807.812 5177.225"></polygon><polygon fill="#c4c4c4" points="1874.133 5219.171 2560.951 4806.701 2543.93 4796.135 1856.308 5208.23 1874.133 5219.171"></polygon><polygon fill="#c4c4c4" points="1954.632 5259.001 2641.451 4846.531 2624.432 4835.968 1936.806 5248.06 1954.632 5259.001"></polygon><polygon fill="#c4c4c4" points="2020.954 5300.944 2707.772 4888.477 2690.753 4877.911 2003.127 5290.006 2020.954 5300.944"></polygon><polygon fill="#c4c4c4" points="2096.799 5342.892 2783.617 4930.425 2766.598 4919.856 2078.975 5331.951 2096.799 5342.892"></polygon><polygon fill="#c4c4c4" points="2163.123 5384.835 2849.941 4972.365 2832.922 4961.799 2145.298 5373.894 2163.123 5384.835"></polygon><polygon fill="#c4c4c4" points="2243.825 5429.6 2930.643 5017.133 2913.624 5006.564 2225.998 5418.659 2243.825 5429.6"></polygon><polygon fill="#c4c4c4" points="2310.149 5471.542 2996.965 5059.076 2979.946 5048.507 2292.319 5460.605 2310.149 5471.542"></polygon><polygon fill="#c4c4c4" points="2385.992 5513.49 3072.81 5101.021 3055.791 5090.455 2368.167 5502.55 2385.992 5513.49"></polygon><polygon fill="#c4c4c4" points="2452.315 5555.433 3139.134 5142.967 3122.112 5132.398 2434.488 5544.493 2452.315 5555.433"></polygon><path fill="#5c9133" d="M1368.6227 5059.4109q-.46 0-.92-.039l-87.2822-7.3153a11.02462 11.02462 0 011.8451-21.9719l70.9338 5.9458-28.1724-89.9667a11.02559 11.02559 0 0121.0442-6.5876l33.0736 105.6159a11.02889 11.02889 0 01-10.5221 14.3188zM1557.0693 5164.1225c-.3041 0-.6133-.013-.92-.0389l-87.2796-7.3154a11.02451 11.02451 0 011.8425-21.9719l70.9365 5.9432-28.175-89.9666a11.02556 11.02556 0 0121.0441-6.5877l33.0736 105.6185a11.02889 11.02889 0 01-10.5221 14.3188zM1726.6832 5262.9559c-.3041 0-.6133-.013-.92-.039l-87.2796-7.3153a11.02462 11.02462 0 011.8451-21.9719l70.9339 5.9458-28.175-89.9693a11.02555 11.02555 0 0121.0441-6.5876l33.0762 105.6185a11.03185 11.03185 0 01-10.5247 14.3188zM1915.1298 5367.6675c-.3015 0-.6107-.013-.9199-.0389l-87.2771-7.3154a11.0258 11.0258 0 011.8425-21.9745l70.9339 5.9458-28.175-89.9666a11.02561 11.02561 0 0121.0442-6.5877l33.0761 105.616a11.03262 11.03262 0 01-10.5247 14.3213zM2091.7212 5471.5891c-.3041 0-.6107-.0129-.9226-.0363l-87.277-7.3153a11.02467 11.02467 0 011.8451-21.972l70.9339 5.9432-28.175-89.9666a11.02595 11.02595 0 0121.0441-6.5903l33.0762 105.6186a11.03181 11.03181 0 01-10.5247 14.3187zM2280.1704 5576.3008c-.3041 0-.6133-.013-.9225-.0364l-87.2797-7.3153a11.026 11.026 0 011.8451-21.9746l70.9365 5.9433-28.175-89.9641a11.026 11.026 0 0121.0442-6.5903l33.0735 105.6186a11.02887 11.02887 0 01-10.5221 14.3188z"></path><polygon fill="#a5a567" points="5495.959 3078.786 5495.959 3290.867 6563.093 3903.544 6563.093 3698.197 5495.959 3078.786"></polygon><polygon fill="#918f5c" points="6563.093 3698.197 7273.395 3285.819 6205.42 2667.25 5495.959 3078.786 6563.093 3698.197"></polygon><polygon fill="#f4f4f4" points="6090.882 3188.346 6408.872 3003.731 6155.576 2858.978 5837.963 3043.217 6090.882 3188.346"></polygon><polygon fill="#777449" points="6563.093 3903.544 7273.395 3491.166 7273.395 3451.189 6598.02 3843.792 6598.02 3720.076 7273.395 3330.001 7273.395 3285.819 6563.093 3698.197 6563.093 3903.544"></polygon><polygon fill="#666340" points="7273.395 3451.189 7244.993 3436.04 6598.02 3806.761 6598.02 3843.792 7273.395 3451.189"></polygon><polygon fill="#f4f4f4" points="6598.02 3806.761 6598.02 3720.076 7221.962 3359.708 7221.962 3449.238 6598.02 3806.761"></polygon><polygon fill="#666340" points="7273.395 3451.189 7221.962 3423.734 7221.962 3449.238 7273.395 3451.189"></polygon><polygon fill="#5a90e0" points="5495.959 2836.668 5495.959 3048.749 6563.093 3661.427 6563.093 3456.079 5495.959 2836.668"></polygon><polygon fill="#4c73e0" points="6563.093 3456.079 7273.395 3043.701 6205.42 2425.133 5495.959 2836.668 6563.093 3456.079"></polygon><polygon fill="#f4f4f4" points="6090.882 2946.229 6408.872 2761.614 6155.576 2616.861 5837.963 2801.099 6090.882 2946.229"></polygon><polygon fill="#3f65ba" points="6563.093 3661.427 7273.395 3249.049 7273.395 3209.072 6598.02 3601.674 6598.02 3477.959 7273.395 3087.884 7273.395 3043.701 6563.093 3456.079 6563.093 3661.427"></polygon><polygon fill="#325593" points="7273.395 3209.072 7244.993 3193.923 6598.02 3564.644 6598.02 3601.674 7273.395 3209.072"></polygon><polygon fill="#f4f4f4" points="6598.02 3564.644 6598.02 3477.959 7221.962 3117.591 7221.962 3207.121 6598.02 3564.644"></polygon><polygon fill="#325593" points="7273.395 3209.072 7221.962 3181.617 7221.962 3207.121 7273.395 3209.072"></polygon><polygon fill="#7489c4" points="4690.282 5278.649 5021.521 5278.649 5476.594 5025.703 4935.498 4732.855 4690.282 5278.649"></polygon><polygon fill="#7489c4" points="3511.563 5079.147 3693.06 5079.147 3723.183 5063.197 3328.895 4824.903 3511.563 5079.147"></polygon><path fill="#cecece" d="M4732.1946,5267.0022c-26.7994,15.5041-70.6744,15.5322-97.4949.0635l-794.2471-458.0889c-26.822-15.4688-26.8009-40.746.0451-56.1725l476.8516-274.004c26.8473-15.4265,70.7335-15.3504,97.5259.1691l790.5135,457.9057c26.7923,15.5195,26.7853,40.9024-.0169,56.4064Z"></path><path fill="#364d87" d="M5225.4523,4890.2263v75.6836s.4989,15.4208-18.7204,26.5612L4725.122,5270.5583s-41.2872,20.1115-88.1728-2.258l-800.5629-461.8859s-16.478-9.1841-15.8747-28.1413v-69.7103Z"></path><path fill="#28396b" d="M4732.1946,5192.7943c-26.7994,15.5041-70.6744,15.5323-97.4949.0621l-794.2471-458.0875c-26.822-15.4688-26.8009-40.7474.0451-56.1739l476.8516-274.0026c26.8473-15.4265,70.7335-15.3504,97.5259.1691l790.5135,457.9043c26.7923,15.5209,26.7853,40.9038-.0169,56.4078Z"></path><polygon fill="#d9e6ed" points="3881.492 4728.824 4532.535 5106.297 5057.317 4803.794 4402.327 4422.374 3881.492 4728.824"></polygon><path fill="#e5e5e5" d="M4102.7243 4547.8721c-8.5949 5.0022-8.4737 13.2545.2663 18.3384 8.7387 5.0839 22.9897 5.1643 31.6691.1804 8.6795-4.9852 8.5596-13.2376-.2664-18.3384C4125.5687 4542.9503 4111.3163 4542.8685 4102.7243 4547.8721zM4846.7003 4984.612c-22.6612 13.1939-22.3455 34.9559.7019 48.3641 23.0488 13.4067 60.6334 13.6209 83.523.4749 22.8868-13.1446 22.571-34.908-.7033-48.3626C4906.9461 4971.6337 4869.3615 4971.4194 4846.7003 4984.612z"></path><polygon fill="#f9f9f9" points="3976.748 4672.777 4760.56 4974.856 4532.535 5106.297 3881.492 4728.824 3976.748 4672.777"></polygon><polygon fill="#f9f9f9" points="4005.355 4656.376 4803.403 4950.059 4869.808 4911.781 4066.948 4619.866 4005.355 4656.376"></polygon><polygon fill="#d8b33d" points="2693.277 4525.271 3511.563 5000.085 3582.849 4961.201 2761.107 4488.114 2693.277 4525.271"></polygon><polygon fill="#ba9735" points="3511.563 5000.085 3511.563 5079.147 2693.277 4606.062 2693.277 4525.271 3511.563 5000.085"></polygon><polygon fill="#eac86a" points="3511.563 5000.085 3682.652 5119.328 3582.849 4961.201 3511.563 5000.085"></polygon><polygon fill="#d8b356" points="3682.652 5119.328 3511.563 5079.147 3511.563 5000.085 3682.652 5119.328"></polygon><polygon fill="#49453d" points="3662.118 5086.797 3647.228 5094.641 3682.652 5119.328 3662.118 5086.797"></polygon><polygon fill="#38352f" points="3647.228 5094.641 3647.228 5111.01 3682.652 5119.328 3647.228 5094.641"></polygon><polygon fill="#9e7e2e" points="2693.277 4525.271 2670.703 4512.094 2670.703 4592.778 2693.277 4606.062 2693.277 4525.271"></polygon><polygon fill="#b79534" points="2670.703 4512.094 2737.129 4473.857 2761.107 4488.114 2693.277 4525.271 2670.703 4512.094"></polygon><polygon fill="#a34588" points="2670.703 4512.094 2624.366 4485.524 2624.366 4566.207 2670.703 4592.778 2670.703 4512.094"></polygon><polygon fill="#b74f95" points="2624.366 4485.524 2693.277 4446.64 2737.129 4473.857 2670.703 4512.094 2624.366 4485.524"></polygon><polygon fill="#7489c4" points="3717.211 4596.205 3831.141 4596.205 4214.834 4382.739 3999.578 4262.388 3717.211 4596.205"></polygon><polygon fill="#af3339" points="3745.03 4514.671 3717.211 4596.205 4006.328 4430.334 4006.328 4364.82 3745.03 4514.671"></polygon><polygon fill="#9b2a35" points="3745.03 4514.671 3601.956 4430.334 3572.589 4514.671 3717.211 4596.205 3745.03 4514.671"></polygon><polygon fill="#892735" points="3601.956 4430.334 3861.77 4280.482 4006.328 4364.82 3745.03 4514.671 3601.956 4430.334"></polygon><polygon fill="#345689" points="4006.328 4364.82 4121.854 4297.491 3975.761 4214.154 3861.77 4280.482 4006.328 4364.82"></polygon><polygon fill="#3b609b" points="4121.854 4297.491 4121.854 4364.82 4006.328 4430.334 4006.328 4364.82 4121.854 4297.491"></polygon><polygon fill="#ccc" points="3589.58 4465.875 3733.025 4549.856 4121.854 4330.125 4121.854 4349.704 3724.8 4573.963 3581.254 4489.784 3589.58 4465.875"></polygon><polygon fill="#afafaf" points="3733.025 4549.856 3724.8 4573.963 3581.254 4489.784 3589.58 4465.875 3733.025 4549.856"></polygon><polygon fill="#7489c4" points="5518.876 4540.014 5793.301 4540.014 6247.063 4286.179 5807.783 4043.376 5518.876 4540.014"></polygon><polygon fill="#28396b" points="5518.901 4464.408 4747.498 4019.049 5262.554 3723.72 6030.43 4168.092 5518.901 4464.408"></polygon><polygon fill="#364d87" points="4747.498 4019.049 4747.498 4094.064 5518.876 4540.014 5518.876 4464.408 4747.498 4019.049"></polygon><polygon fill="#3f5d99" points="5518.876 4540.014 6030.43 4242.32 6030.43 4168.092 5518.876 4464.408 5518.876 4540.014"></polygon><polygon fill="#ccdded" points="4953.918 4085.231 4861.5 4031.606 5279.094 3790.861 5370.656 3844.773 4953.918 4085.231"></polygon><polygon fill="#b0bfcc" points="5351.198 3856 5277.518 3811.532 4879.098 4041.819 4861.5 4031.606 5279.094 3790.861 5370.656 3844.773 5351.198 3856"></polygon><polygon fill="#5175af" points="5035.22 4115.837 5092.299 4149.065 5178.636 4099.196 5120.266 4065.918 5035.22 4115.837"></polygon><polygon fill="#3f5d99" points="5178.636 4099.196 5178.636 4111.257 5092.446 4161.264 5092.299 4149.065 5178.636 4099.196"></polygon><polygon fill="#364d87" points="5035.22 4115.837 5035.22 4128.425 5092.446 4161.264 5092.446 4149.065 5035.22 4115.837"></polygon><polygon fill="#ce2929" points="5143.61 4050.89 5200.688 4084.118 5287.025 4034.251 5228.655 4000.971 5143.61 4050.89"></polygon><polygon fill="#b72323" points="5287.025 4034.251 5287.025 4046.31 5200.837 4096.317 5200.688 4084.118 5287.025 4034.251"></polygon><polygon fill="#bc2424" points="5143.61 4050.89 5143.61 4063.479 5200.837 4096.317 5200.837 4084.118 5143.61 4050.89"></polygon><polygon fill="#5175af" points="5250.506 3988.823 5307.584 4022.051 5393.922 3972.182 5335.552 3938.904 5250.506 3988.823"></polygon><polygon fill="#3f5d99" points="5393.922 3972.182 5393.922 3984.245 5307.73 4034.251 5307.584 4022.051 5393.922 3972.182"></polygon><polygon fill="#364d87" points="5250.506 3988.823 5250.506 4001.412 5307.73 4034.251 5307.73 4022.051 5250.506 3988.823"></polygon><polygon fill="#5175af" points="5356.399 3926.755 5413.477 3959.984 5499.813 3910.115 5441.445 3876.836 5356.399 3926.755"></polygon><polygon fill="#3f5d99" points="5499.813 3910.115 5499.813 3922.177 5413.625 3972.182 5413.477 3959.984 5499.813 3910.115"></polygon><polygon fill="#364d87" points="5356.399 3926.755 5356.399 3939.343 5413.625 3972.182 5413.625 3959.984 5356.399 3926.755"></polygon><polygon fill="#5175af" points="5128.827 4170.39 5185.905 4203.617 5272.243 4153.75 5213.873 4120.471 5128.827 4170.39"></polygon><polygon fill="#3f5d99" points="5272.243 4153.75 5272.243 4165.812 5186.053 4215.817 5185.905 4203.617 5272.243 4153.75"></polygon><polygon fill="#364d87" points="5128.827 4170.39 5128.827 4182.978 5186.053 4215.817 5186.053 4203.617 5128.827 4170.39"></polygon><polygon fill="#5175af" points="5237.218 4105.442 5294.296 4138.672 5380.634 4088.803 5322.264 4055.524 5237.218 4105.442"></polygon><polygon fill="#3f5d99" points="5380.634 4088.803 5380.634 4100.865 5294.444 4150.871 5294.296 4138.672 5380.634 4088.803"></polygon><polygon fill="#364d87" points="5237.218 4105.442 5237.218 4118.033 5294.444 4150.871 5294.444 4138.672 5237.218 4105.442"></polygon><polygon fill="#5175af" points="5344.113 4043.376 5401.191 4076.604 5487.528 4026.736 5429.158 3993.457 5344.113 4043.376"></polygon><polygon fill="#3f5d99" points="5487.528 4026.736 5487.528 4038.798 5401.338 4088.803 5401.191 4076.604 5487.528 4026.736"></polygon><polygon fill="#364d87" points="5344.113 4043.376 5344.113 4055.964 5401.338 4088.803 5401.338 4076.604 5344.113 4043.376"></polygon><polygon fill="#5175af" points="5450.006 3981.309 5507.084 4014.537 5593.422 3964.668 5535.052 3931.39 5450.006 3981.309"></polygon><polygon fill="#3f5d99" points="5593.422 3964.668 5593.422 3976.731 5507.231 4026.736 5507.084 4014.537 5593.422 3964.668"></polygon><polygon fill="#364d87" points="5450.006 3981.309 5450.006 3993.898 5507.231 4026.736 5507.231 4014.537 5450.006 3981.309"></polygon><polygon fill="#5175af" points="5225.768 4226.991 5282.846 4260.219 5369.184 4210.351 5310.814 4177.073 5225.768 4226.991"></polygon><polygon fill="#3f5d99" points="5369.184 4210.351 5369.184 4222.413 5282.994 4272.418 5282.846 4260.219 5369.184 4210.351"></polygon><polygon fill="#364d87" points="5225.768 4226.991 5225.768 4239.58 5282.994 4272.418 5282.994 4260.219 5225.768 4226.991"></polygon><polygon fill="#5175af" points="5334.159 4162.044 5391.237 4195.274 5477.575 4145.404 5419.205 4112.127 5334.159 4162.044"></polygon><polygon fill="#3f5d99" points="5477.575 4145.404 5477.575 4157.466 5391.385 4207.473 5391.237 4195.274 5477.575 4145.404"></polygon><polygon fill="#364d87" points="5334.159 4162.044 5334.159 4174.634 5391.385 4207.473 5391.385 4195.274 5334.159 4162.044"></polygon><polygon fill="#5175af" points="5441.054 4099.977 5498.132 4133.205 5584.469 4083.338 5526.1 4050.059 5441.054 4099.977"></polygon><polygon fill="#3f5d99" points="5584.469 4083.338 5584.469 4095.399 5498.28 4145.404 5498.132 4133.205 5584.469 4083.338"></polygon><polygon fill="#364d87" points="5441.054 4099.977 5441.054 4112.566 5498.28 4145.404 5498.28 4133.205 5441.054 4099.977"></polygon><polygon fill="#5175af" points="5546.947 4037.909 5604.025 4071.138 5690.363 4021.269 5631.993 3987.992 5546.947 4037.909"></polygon><polygon fill="#3f5d99" points="5690.363 4021.269 5690.363 4033.331 5604.173 4083.338 5604.025 4071.138 5690.363 4021.269"></polygon><polygon fill="#364d87" points="5546.947 4037.909 5546.947 4050.499 5604.173 4083.338 5604.173 4071.138 5546.947 4037.909"></polygon><polygon fill="#5175af" points="5319.375 4281.544 5376.453 4314.773 5462.79 4264.904 5404.42 4231.625 5319.375 4281.544"></polygon><polygon fill="#3f5d99" points="5462.79 4264.904 5462.79 4276.966 5376.6 4326.971 5376.453 4314.773 5462.79 4264.904"></polygon><polygon fill="#364d87" points="5319.375 4281.544 5319.375 4294.134 5376.6 4326.971 5376.6 4314.773 5319.375 4281.544"></polygon><polygon fill="#d6d23a" points="5427.766 4216.597 5484.844 4249.828 5571.181 4199.957 5512.811 4166.68 5427.766 4216.597"></polygon><polygon fill="#b2a830" points="5571.181 4199.957 5571.181 4212.021 5484.991 4262.026 5484.844 4249.828 5571.181 4199.957"></polygon><polygon fill="#c1ba34" points="5427.766 4216.597 5427.766 4229.187 5484.991 4262.026 5484.991 4249.828 5427.766 4216.597"></polygon><polygon fill="#60c647" points="5534.662 4154.53 5591.738 4187.759 5678.076 4137.892 5619.706 4104.613 5534.662 4154.53"></polygon><polygon fill="#53a538" points="5678.076 4137.892 5678.076 4149.952 5591.886 4199.957 5591.738 4187.759 5678.076 4137.892"></polygon><polygon fill="#59b540" points="5534.662 4154.53 5534.662 4167.12 5591.886 4199.957 5591.886 4187.759 5534.662 4154.53"></polygon><polygon fill="#5175af" points="5640.554 4092.463 5737.936 4148.855 5824.274 4098.986 5725.599 4042.544 5640.554 4092.463"></polygon><polygon fill="#364d87" points="5640.554 4092.463 5640.554 4105.052 5736.076 4159.606 5736.076 4147.016 5640.554 4092.463"></polygon><polygon fill="#5175af" points="5414.897 4336.098 5471.975 4369.326 5558.312 4319.458 5499.942 4286.179 5414.897 4336.098"></polygon><polygon fill="#3f5d99" points="5558.312 4319.458 5558.312 4331.52 5472.122 4381.526 5471.975 4369.326 5558.312 4319.458"></polygon><polygon fill="#364d87" points="5414.897 4336.098 5414.897 4348.687 5472.122 4381.526 5472.122 4369.326 5414.897 4336.098"></polygon><polygon fill="#5175af" points="5523.288 4271.151 5580.366 4304.379 5666.703 4254.512 5608.333 4221.234 5523.288 4271.151"></polygon><polygon fill="#3f5d99" points="5666.703 4254.512 5666.703 4266.573 5580.513 4316.58 5580.366 4304.379 5666.703 4254.512"></polygon><polygon fill="#364d87" points="5523.288 4271.151 5523.288 4283.741 5580.513 4316.58 5580.513 4304.379 5523.288 4271.151"></polygon><polygon fill="#5175af" points="5630.182 4209.084 5687.26 4242.312 5773.598 4192.444 5715.23 4159.166 5630.182 4209.084"></polygon><polygon fill="#3f5d99" points="5773.598 4192.444 5773.598 4204.506 5687.408 4254.512 5687.26 4242.312 5773.598 4192.444"></polygon><polygon fill="#364d87" points="5630.182 4209.084 5630.182 4221.673 5687.408 4254.512 5687.408 4242.312 5630.182 4209.084"></polygon><polygon fill="#5175af" points="5736.076 4147.016 5793.154 4180.245 5879.491 4130.378 5821.121 4097.099 5736.076 4147.016"></polygon><polygon fill="#3f5d99" points="5879.491 4130.378 5879.491 4142.438 5793.301 4192.444 5793.154 4180.245 5879.491 4130.378"></polygon><polygon fill="#364d87" points="5736.076 4147.016 5736.076 4159.606 5793.301 4192.444 5793.301 4180.245 5736.076 4147.016"></polygon><polygon fill="#7489c4" points="4175.769 6098.346 4395.572 6098.346 4837.735 5853.238 4440.872 5626.673 4175.769 6098.346"></polygon><polygon fill="#e2ca20" points="3696.816 5819.409 4175.769 6098.346 4660.163 5819.409 4178.49 5540.475 3696.816 5819.409"></polygon><polygon fill="#ceb520" points="3696.816 5803.705 4175.769 6082.641 4660.163 5803.705 4178.49 5524.771 3696.816 5803.705"></polygon><polygon fill="#e2ca20" points="3696.816 5789.208 4175.769 6068.145 4660.163 5789.208 4178.49 5510.274 3696.816 5789.208"></polygon><polygon fill="#ceb520" points="3696.816 5773.504 4175.769 6052.44 4660.163 5773.504 4178.49 5494.57 3696.816 5773.504"></polygon><polygon fill="#e2ca20" points="3696.816 5761.423 4175.769 6040.36 4660.163 5761.423 4178.49 5482.489 3696.816 5761.423"></polygon><polygon fill="#ceb520" points="3696.816 5745.719 4175.769 6024.655 4660.163 5745.719 4178.49 5466.785 3696.816 5745.719"></polygon><polygon fill="#e2ca20" points="3696.816 5731.222 4175.769 6010.158 4660.163 5731.222 4178.49 5452.288 3696.816 5731.222"></polygon><polygon fill="#fcd947" points="3696.816 5715.518 4175.769 5994.454 4660.163 5715.518 4178.49 5436.584 3696.816 5715.518"></polygon><polygon fill="#3f69c4" points="6570.419 3302.037 6719.349 3302.037 7100.19 3085.147 6883.949 2953.897 6570.419 3302.037"></polygon><polygon fill="#e2ca20" points="6147.435 3055.696 6570.419 3302.037 6998.208 3055.696 6572.822 2809.357 6147.435 3055.696"></polygon><polygon fill="#ceb520" points="6147.435 3041.826 6570.419 3288.167 6998.208 3041.826 6572.822 2795.487 6147.435 3041.826"></polygon><polygon fill="#e2ca20" points="6147.435 3029.024 6570.419 3275.365 6998.208 3029.024 6572.822 2782.685 6147.435 3029.024"></polygon><polygon fill="#ceb520" points="6147.435 3015.155 6570.419 3261.495 6998.208 3015.155 6572.822 2768.816 6147.435 3015.155"></polygon><polygon fill="#e2ca20" points="6147.435 3004.486 6570.419 3250.827 6998.208 3004.486 6572.822 2758.147 6147.435 3004.486"></polygon><polygon fill="#ceb520" points="6147.435 2990.616 6570.419 3236.957 6998.208 2990.616 6572.822 2744.277 6147.435 2990.616"></polygon><polygon fill="#e2ca20" points="6147.435 2977.814 6570.419 3224.155 6998.208 2977.814 6572.822 2731.475 6147.435 2977.814"></polygon><polygon fill="#fcd947" points="6147.435 2963.944 6570.419 3210.285 6998.208 2963.944 6572.822 2717.605 6147.435 2963.944"></polygon></svg>