<svg xmlns="http://www.w3.org/2000/svg" width="86.03" height="76.333" viewBox="0 0 86.03 76.333">
  <g id="Group_40385" data-name="Group 40385" transform="translate(2526 3331.16)">
    <path id="Path_87075" data-name="Path 87075" d="M37.515,32.594a9.647,9.647,0,1,0-9.647-9.647A9.7,9.7,0,0,0,37.515,32.594Zm0-17.179a7.665,7.665,0,1,1-7.665,7.665A7.756,7.756,0,0,1,37.515,15.414ZM19.279,39.333a9.874,9.874,0,0,0-1.454,4.757s-.661,6.343-.925,12.422V57.57H58.263V56.513c-.264-6.079-.925-12.29-.925-12.29a10.342,10.342,0,0,0-1.454-4.89,7.8,7.8,0,0,0-4.361-3.568l-6.74-2.379L38.573,44.619H36.458L30.379,33.255l-6.74,2.379A8.605,8.605,0,0,0,19.279,39.333Zm10.176-3.7L35.269,46.47h4.493l5.815-10.836,5.154,1.85a5.763,5.763,0,0,1,3.3,2.775,8.273,8.273,0,0,1,1.189,3.964s.661,5.55.925,11.233H50.862l-.4-6.872-1.982.132.4,6.74H26.15l.4-6.74-1.982-.132-.4,6.872H18.882c.264-5.682.925-11.1.925-11.365A7.733,7.733,0,0,1,21,40.259a6.293,6.293,0,0,1,3.3-2.775Z" transform="translate(-2520.435 -3331.691)" fill="#a2a7d1"/>
    <path id="Path_87076" data-name="Path 87076" d="M40.6,5.7A36.062,36.062,0,0,1,78.926,37.154l-5.682-3.832-1.057,1.586,8.193,5.55,5.55-8.193-1.586-1.057-3.568,5.154a38.009,38.009,0,0,0-12.819-23.39A38.537,38.537,0,0,0,40.206,3.72C21.837,5.042,6.64,20.107,5.054,38.74l1.982.132A36.489,36.489,0,0,1,40.6,5.7Zm5.154,72.154A36.318,36.318,0,0,1,7.3,46.537L12.586,50.5l1.189-1.586L5.847,42.969-.1,50.9l1.586,1.189,3.832-5.022A38.328,38.328,0,0,0,43.113,79.97a19.517,19.517,0,0,0,2.775-.132A38.428,38.428,0,0,0,81.3,44.29l-1.982-.132a36.549,36.549,0,0,1-33.566,33.7Z" transform="translate(-2525.9 -3334.797)" fill="#a2a7d1"/>
  </g>
</svg>
