<svg xmlns="http://www.w3.org/2000/svg" width="46" height="46" viewBox="0 0 46 46">
  <g id="Group_40391" data-name="Group 40391" transform="translate(2113 4495)">
    <path id="Path_87075" data-name="Path 87075" d="M31.342,26.817a6.758,6.758,0,1,0-6.758-6.758A6.8,6.8,0,0,0,31.342,26.817Zm0-12.035a5.37,5.37,0,1,1-5.37,5.37A5.434,5.434,0,0,1,31.342,14.781ZM18.566,31.538a6.918,6.918,0,0,0-1.018,3.333s-.463,4.444-.648,8.7v.741H45.877v-.741c-.185-4.259-.648-8.61-.648-8.61a7.245,7.245,0,0,0-1.018-3.425,5.465,5.465,0,0,0-3.055-2.5l-4.722-1.666-4.351,7.869H30.6l-4.259-7.962-4.722,1.666A6.028,6.028,0,0,0,18.566,31.538ZM25.7,28.946l4.073,7.591h3.148l4.073-7.591,3.611,1.3a4.037,4.037,0,0,1,2.314,1.944,5.8,5.8,0,0,1,.833,2.777s.463,3.888.648,7.869h-3.7l-.278-4.814-1.389.093.278,4.722H23.381l.278-4.722-1.389-.093-.278,4.814h-3.7c.185-3.981.648-7.777.648-7.962a5.417,5.417,0,0,1,.833-2.685,4.408,4.408,0,0,1,2.314-1.944Z" transform="translate(-2120.9 -4501.3)" fill="#8189c9"/>
    <g id="Ellipse_7473" data-name="Ellipse 7473" transform="translate(-2113 -4495)" fill="none" stroke="#8189c9" stroke-width="0.5">
      <circle cx="23" cy="23" r="23" stroke="none"/>
      <circle cx="23" cy="23" r="22.75" fill="none"/>
    </g>
  </g>
</svg>
