<svg xmlns="http://www.w3.org/2000/svg" width="21" height="14.5" viewBox="0 0 21 14.5">
  <path id="delivery-truck" d="M16,11h6v-.244L19.165,8H16Zm0,1v3.5a2.5,2.5,0,0,1,4.292.5H22V12Zm-1,4V6H3V16h.708a2.5,2.5,0,0,1,4.584,0Zm1-9h3.571L23,10.333V16a1,1,0,0,1-1,1H20.5a2.5,2.5,0,0,1-5,0h-7a2.5,2.5,0,0,1-5,0H3a1,1,0,0,1-1-1V6A1,1,0,0,1,3,5H15a1,1,0,0,1,1,1ZM6,18.5A1.5,1.5,0,1,0,4.5,17,1.5,1.5,0,0,0,6,18.5Zm12,0A1.5,1.5,0,1,0,16.5,17,1.5,1.5,0,0,0,18,18.5Z" transform="translate(-2 -5)" fill="#05b462"/>
</svg>
