<svg xmlns="http://www.w3.org/2000/svg" width="34" height="34" viewBox="0 0 34 34">
  <g id="Group_40389" data-name="Group 40389" transform="translate(2098 4525)">
    <path id="delivery-truck" d="M16,11h6v-.244L19.165,8H16Zm0,1v3.5a2.5,2.5,0,0,1,4.292.5H22V12Zm-1,4V6H3V16h.708a2.5,2.5,0,0,1,4.584,0Zm1-9h3.571L23,10.333V16a1,1,0,0,1-1,1H20.5a2.5,2.5,0,0,1-5,0h-7a2.5,2.5,0,0,1-5,0H3a1,1,0,0,1-1-1V6A1,1,0,0,1,3,5H15a1,1,0,0,1,1,1ZM6,18.5A1.5,1.5,0,1,0,4.5,17,1.5,1.5,0,0,0,6,18.5Zm12,0A1.5,1.5,0,1,0,16.5,17,1.5,1.5,0,0,0,18,18.5Z" transform="translate(-2093.01 -4520.48)" fill="#05b462"/>
    <g id="Ellipse_7473" data-name="Ellipse 7473" transform="translate(-2098 -4525)" fill="none" stroke="#05b462" stroke-width="0.5">
      <circle cx="17" cy="17" r="17" stroke="none"/>
      <circle cx="17" cy="17" r="16.75" fill="none"/>
    </g>
  </g>
</svg>
