<svg id="headphone" xmlns="http://www.w3.org/2000/svg" width="48" height="48" viewBox="0 0 48 48">
  <path id="Path_87077" data-name="Path 87077" d="M32,23.5a.472.472,0,0,1-.5-.5V22a7.757,7.757,0,0,0-2-5.3.495.495,0,0,1,.7-.7,9.009,9.009,0,0,1,2.3,6v1A.472.472,0,0,1,32,23.5Zm-17,0a.472.472,0,0,1-.5-.5V22a9.009,9.009,0,0,1,2.3-6,.495.495,0,0,1,.7.7,8.133,8.133,0,0,0-2,5.3v1A.472.472,0,0,1,15,23.5Z" fill="#bc7171"/>
  <path id="Path_87078" data-name="Path 87078" d="M16,30H15a1.538,1.538,0,0,1-1.5-1.5v-4A1.538,1.538,0,0,1,15,23h1a.472.472,0,0,1,.5.5v6A.472.472,0,0,1,16,30Zm-1-6a.472.472,0,0,0-.5.5v4a.472.472,0,0,0,.5.5h.5V24Z" fill="#bc7171"/>
  <path id="Path_87079" data-name="Path 87079" d="M14,29H13a1.538,1.538,0,0,1-1.5-1.5v-2A1.538,1.538,0,0,1,13,24h1a.472.472,0,0,1,.5.5v4A.472.472,0,0,1,14,29Zm-1-4a.472.472,0,0,0-.5.5v2a.472.472,0,0,0,.5.5h.5V25ZM25,36H24a1.5,1.5,0,0,1,0-3h1a1.5,1.5,0,0,1,0,3Zm-1-2a.5.5,0,0,0,0,1h1a.5.5,0,0,0,0-1Zm8-4H31a.472.472,0,0,1-.5-.5v-6A.472.472,0,0,1,31,23h1a1.538,1.538,0,0,1,1.5,1.5v4A1.538,1.538,0,0,1,32,30Zm-.5-1H32a.472.472,0,0,0,.5-.5v-4A.472.472,0,0,0,32,24h-.5Z" fill="#bc7171"/>
  <path id="Path_87080" data-name="Path 87080" d="M34,29H33a.472.472,0,0,1-.5-.5v-4A.472.472,0,0,1,33,24h1a1.538,1.538,0,0,1,1.5,1.5v2A1.538,1.538,0,0,1,34,29Zm-.5-1H34a.472.472,0,0,0,.5-.5v-2A.472.472,0,0,0,34,25h-.5ZM29.1,17.1a1.284,1.284,0,0,1-1-.4,7.17,7.17,0,0,0-4.6-1.8,6.5,6.5,0,0,0-4.6,1.8,1.5,1.5,0,0,1-1.1.4,1.231,1.231,0,0,1-1-.5,1.458,1.458,0,0,1,.2-2.1,9.962,9.962,0,0,1,13.2,0,1.55,1.55,0,0,1,.2,2.1,1.389,1.389,0,0,1-1,.5h-.3ZM23.5,14a7.941,7.941,0,0,1,5.3,2c.1.1.2.1.4.1.1,0,.2-.1.3-.2a.428.428,0,0,0-.1-.7,8.823,8.823,0,0,0-6-2.3,9.009,9.009,0,0,0-6,2.3.616.616,0,0,0-.1.7c.1.1.2.2.3.2A.6.6,0,0,0,18,16a8.866,8.866,0,0,1,5.5-2ZM28,35H26a.5.5,0,0,1,0-1h2a3.543,3.543,0,0,0,3.5-3.5v-1a.5.5,0,0,1,1,0v1A4.481,4.481,0,0,1,28,35Z" fill="#bc7171"/>
  <path id="Path_87081" data-name="Path 87081" d="M24,48A24,24,0,1,1,48,24,24.071,24.071,0,0,1,24,48ZM24,1A23,23,0,1,0,47,24,23,23,0,0,0,24,1Z" fill="#bc7171"/>
</svg>
