<svg xmlns="http://www.w3.org/2000/svg" width="43" height="43" viewBox="0 0 43 43">
  <g id="Group_40391" data-name="Group 40391" transform="translate(2232 4591)">
    <g id="shop" transform="translate(-2226.5 -4585.64)">
      <path id="Path_87082" data-name="Path 87082" d="M6.48,43.708a.208.208,0,0,1-.21-.21V31.86a.21.21,0,1,1,.419,0V43.5A.21.21,0,0,1,6.48,43.708Zm23.675,0a.208.208,0,0,1-.21-.21V31.86a.21.21,0,0,1,.419,0V43.5A.21.21,0,0,1,30.155,43.708Z" transform="translate(-2.189 -16.848)" fill="#b59000"/>
      <path id="Path_87083" data-name="Path 87083" d="M28.083,34.418H4.169A1.673,1.673,0,0,1,2.5,32.75a1.642,1.642,0,0,1,.491-1.178,1.667,1.667,0,0,1,1.178-.491H28.083a1.673,1.673,0,0,1,1.669,1.669,1.642,1.642,0,0,1-.491,1.178A1.659,1.659,0,0,1,28.083,34.418ZM4.169,31.5a1.249,1.249,0,1,0,0,2.5H28.083a1.257,1.257,0,0,0,.885-.365,1.251,1.251,0,0,0-.885-2.134ZM7.292,16.588H2.877A.213.213,0,0,1,2.7,16.5a.218.218,0,0,1-.021-.2l1.79-4.327a2.01,2.01,0,0,1,1.9-1.342h2.4a.207.207,0,0,1,.168.084.2.2,0,0,1,.038.18L7.5,16.432A.22.22,0,0,1,7.292,16.588Zm-4.1-.419H7.129l1.363-5.119H6.365a1.593,1.593,0,0,0-1.5,1.073Z" transform="translate(0 -4.64)" fill="#b59000"/>
      <path id="Path_87084" data-name="Path 87084" d="M18.054,16.582H13.635a.207.207,0,0,1-.168-.084.2.2,0,0,1-.038-.18L14.9,10.775a.21.21,0,0,1,.2-.155h3.681a.217.217,0,0,1,.159.071.2.2,0,0,1,.05.164L18.256,16.4A.2.2,0,0,1,18.054,16.582Zm-4.146-.419H17.87l.679-5.123H15.271Z" transform="translate(-6.343 -4.634)" fill="#b59000"/>
      <path id="Path_87085" data-name="Path 87085" d="M28.591,16.588H24.177a.217.217,0,0,1-.159-.071.2.2,0,0,1-.05-.164L24.7,10.81a.209.209,0,0,1,.21-.18h3.677a.208.208,0,0,1,.21.21v5.542A.207.207,0,0,1,28.591,16.588Zm-4.176-.419h3.966V11.045H25.095Z" transform="translate(-12.466 -4.64)" fill="#b59000"/>
      <path id="Path_87086" data-name="Path 87086" d="M39.124,16.582H34.71a.208.208,0,0,1-.21-.21V10.83a.208.208,0,0,1,.21-.21h3.681a.216.216,0,0,1,.21.18l.738,5.542a.194.194,0,0,1-.05.164A.215.215,0,0,1,39.124,16.582Zm-4.205-.419h3.966l-.679-5.123H34.919Z" transform="translate(-18.584 -4.634)" fill="#b59000"/>
      <path id="Path_87087" data-name="Path 87087" d="M48.633,16.588H44.215a.216.216,0,0,1-.21-.18l-.738-5.542a.194.194,0,0,1,.05-.164.2.2,0,0,1,.159-.071h3.681a.206.206,0,0,1,.2.155l1.472,5.542a.2.2,0,0,1-.038.18A.2.2,0,0,1,48.633,16.588ZM44.4,16.168h3.962L47,11.045H43.72Z" transform="translate(-23.674 -4.64)" fill="#b59000"/>
      <path id="Path_87088" data-name="Path 87088" d="M58.162,16.588H53.739a.2.2,0,0,1-.2-.155L52.07,10.894a.2.2,0,0,1,.038-.18.212.212,0,0,1,.168-.084h2.394a2.019,2.019,0,0,1,1.9,1.354L58.359,16.3a.208.208,0,0,1-.021.2A.231.231,0,0,1,58.162,16.588Zm-4.26-.419h3.945l-1.673-4.033a1.594,1.594,0,0,0-1.509-1.082H52.544Z" transform="translate(-28.784 -4.64)" fill="#b59000"/>
      <g id="Group_40380" data-name="Group 40380" transform="translate(2.664 11.524)">
        <path id="Path_87089" data-name="Path 87089" d="M5.309,27.675A2.423,2.423,0,0,1,2.89,25.255V24.04a.208.208,0,0,1,.21-.21H7.514a.208.208,0,0,1,.21.21v1.216a2.432,2.432,0,0,1-.709,1.711A2.387,2.387,0,0,1,5.309,27.675Zm-2-3.421V25.26a2,2,0,0,0,4,0V24.249h-4Z" transform="translate(-2.89 -23.83)" fill="#b59000"/>
        <path id="Path_87090" data-name="Path 87090" d="M15.849,27.675a2.423,2.423,0,0,1-2.419-2.419V24.04a.208.208,0,0,1,.21-.21h4.415a.208.208,0,0,1,.21.21v1.216a2.432,2.432,0,0,1-.709,1.711A2.4,2.4,0,0,1,15.849,27.675Zm-2-3.421V25.26a2,2,0,0,0,4,0V24.253Z" transform="translate(-9.011 -23.83)" fill="#b59000"/>
        <path id="Path_87091" data-name="Path 87091" d="M26.379,27.675a2.423,2.423,0,0,1-2.419-2.419V24.04a.208.208,0,0,1,.21-.21h4.419a.208.208,0,0,1,.21.21v1.216a2.419,2.419,0,0,1-2.419,2.419Zm-2-3.421V25.26a2,2,0,0,0,4,0V24.253Z" transform="translate(-15.126 -23.83)" fill="#b59000"/>
        <path id="Path_87092" data-name="Path 87092" d="M36.909,27.675a2.423,2.423,0,0,1-2.419-2.419V24.04a.208.208,0,0,1,.21-.21h4.415a.208.208,0,0,1,.21.21v1.216a2.432,2.432,0,0,1-.709,1.711A2.387,2.387,0,0,1,36.909,27.675Zm-2-3.421V25.26a2,2,0,0,0,4,0V24.253Z" transform="translate(-21.242 -23.83)" fill="#b59000"/>
        <path id="Path_87093" data-name="Path 87093" d="M47.449,27.675a2.423,2.423,0,0,1-2.419-2.419V24.04a.208.208,0,0,1,.21-.21h4.415a.208.208,0,0,1,.21.21v1.216a2.432,2.432,0,0,1-.709,1.711A2.4,2.4,0,0,1,47.449,27.675Zm-2-3.421V25.26a2,2,0,0,0,4,0V24.253Z" transform="translate(-27.363 -23.83)" fill="#b59000"/>
        <path id="Path_87094" data-name="Path 87094" d="M57.979,27.675a2.423,2.423,0,0,1-2.419-2.419V24.04a.208.208,0,0,1,.21-.21h4.419a.208.208,0,0,1,.21.21v1.216a2.432,2.432,0,0,1-.709,1.711A2.4,2.4,0,0,1,57.979,27.675Zm-2-3.421V25.26a2,2,0,0,0,4,0V24.253Z" transform="translate(-33.478 -23.83)" fill="#b59000"/>
      </g>
      <g id="Group_40381" data-name="Group 40381" transform="translate(6.563 17.561)">
        <path id="Path_87095" data-name="Path 87095" d="M19.913,47.529H12.4a.208.208,0,0,1-.21-.21V39.58a1.349,1.349,0,0,1,1.35-1.35h5.232a1.349,1.349,0,0,1,1.35,1.35v7.739A.21.21,0,0,1,19.913,47.529Zm-7.3-.419H19.7V39.58a.934.934,0,0,0-.931-.931H13.54a.934.934,0,0,0-.931.931Z" transform="translate(-12.19 -38.23)" fill="#b59000"/>
      </g>
      <g id="Group_40382" data-name="Group 40382" transform="translate(16.956 17.557)">
        <path id="Path_87096" data-name="Path 87096" d="M44.539,44.752H38.12a1.142,1.142,0,0,1-1.14-1.14V39.36a1.142,1.142,0,0,1,1.14-1.14h6.419a1.142,1.142,0,0,1,1.14,1.14v4.251A1.142,1.142,0,0,1,44.539,44.752ZM38.12,38.643a.721.721,0,0,0-.721.721v4.251a.721.721,0,0,0,.721.721h6.419a.721.721,0,0,0,.721-.721V39.36a.721.721,0,0,0-.721-.721H38.12Z" transform="translate(-36.98 -38.22)" fill="#b59000"/>
      </g>
      <g id="Group_40383" data-name="Group 40383" transform="translate(6.739 2.64)">
        <path id="Path_87097" data-name="Path 87097" d="M31.615,6.4H12.82a.208.208,0,0,1-.21-.21V4.46a1.821,1.821,0,0,1,1.82-1.82H30A1.82,1.82,0,0,1,31.82,4.46V6.2A.2.2,0,0,1,31.615,6.4ZM13.029,5.986H31.4V4.46a1.4,1.4,0,0,0-1.4-1.4H14.43a1.4,1.4,0,0,0-1.4,1.4Z" transform="translate(-12.61 -2.64)" fill="#b59000"/>
      </g>
    </g>
    <g id="Ellipse_7474" data-name="Ellipse 7474" transform="translate(-2232 -4591)" fill="none" stroke="#b59000" stroke-width="0.5">
      <circle cx="21.5" cy="21.5" r="21.5" stroke="none"/>
      <circle cx="21.5" cy="21.5" r="21.25" fill="none"/>
    </g>
  </g>
</svg>
